<svg xmlns="http://www.w3.org/2000/svg" xmlns:xlink="http://www.w3.org/1999/xlink" id="Layer_1" data-name="Layer 1" viewBox="0 0 117 108"><defs><style>.cls-1{fill:none;}.cls-2{fill:#ffcd00;}.cls-3{clip-path:url(#clip-path);}.cls-4{clip-path:url(#clip-path-2);}.cls-5{fill:#f9f5f3;}.cls-6{fill:#ffb600;}.cls-7{fill:#0c6ff8;}.cls-8{fill:#ff9800;}.cls-9{fill:#ffe04f;}.cls-10{fill:#d9d6d4;}.cls-11{fill:#32a9ff;}.cls-12{fill:#e9e6e3;}</style><clipPath id="clip-path"><rect class="cls-1" width="117" height="98.37"></rect></clipPath><clipPath id="clip-path-2"><rect class="cls-1" x="-53.94" width="229.12" height="98.37"></rect></clipPath></defs><title>visual-dotcom_navi_featured_desktop-how_to_be_more_empathetic-202000805-kh</title><rect class="cls-2" width="117" height="108"></rect><g class="cls-3"><g class="cls-4"><path class="cls-5" d="M175.18,0H93.46a10.46,10.46,0,0,0,2.17,4.07l13.6,15.72-33,2.07C61.85,12.53,47.11,10.28,42,17.1,36.34,24.59,44.42,40.19,60,51.94s32.84,15.2,38.48,7.7c2.66-3.53,2.26-8.87-.54-14.76l27.53-6.27L146,62.37l.05.06a7.43,7.43,0,0,0,9.84,1.12L175.18,50Z"></path><path class="cls-6" d="M89.58,94.34c0,.4-12.06.73-26.94.73s-26.95-.33-26.95-.73,12.07-.73,27-.73,26.94.33,26.94.73"></path><path class="cls-7" d="M67,72.19h0a2.43,2.43,0,0,1-2.17-3.51l1.81-3.61a.4.4,0,0,1,.72,0l1.81,3.61A2.43,2.43,0,0,1,67,72.19"></path><path class="cls-6" d="M69,84.54l0-.13a2.79,2.79,0,0,0-3.22-2.27l-.14,0a4.56,4.56,0,0,0-3.36,2.63h0c-.45,1.14-.88-.38-.88-.38h0a45.28,45.28,0,0,0-2.26-6L56.28,79.8a42.31,42.31,0,0,1,3.8,14.65.66.66,0,0,0,.65.62h1.91a.61.61,0,0,0,.6-.64c-.07-.9-.16-1.8-.28-2.7v-.06A1.51,1.51,0,0,1,64.23,90l1.11-.2A4.52,4.52,0,0,0,69,84.54Z"></path><path class="cls-8" d="M58.34,85.17a21.79,21.79,0,0,0,1.11-4.36l-2.78-.15A43.39,43.39,0,0,1,58.34,85.17Z"></path><path class="cls-9" d="M63.08,68.63a7.15,7.15,0,0,0-3.43-.24c-.48-1.15-2.48-2-4.86-2-2.7,0-4.89,1.1-5,2.48a5.63,5.63,0,0,0-2.12.06c-2.73.57-4.55,2.91-4.06,5.21a3.86,3.86,0,0,0,1.54,2.32,3.36,3.36,0,0,0-.32,1.43c0,2.65,3.08,4.8,6.89,4.8a8.92,8.92,0,0,0,4.35-1.08,7.9,7.9,0,0,0,3.65.86c3.51,0,6.35-2.12,6.35-4.73a3.49,3.49,0,0,0-.3-1.43,3.49,3.49,0,0,0,1.48-1.87C68,72.18,66.11,69.58,63.08,68.63Zm-6.87,2.74a3.6,3.6,0,0,0,.37,2.28c-.26.11-.51.24-.75.37a8.64,8.64,0,0,0-2.25-.76,3.53,3.53,0,0,0,0-1.21,3.26,3.26,0,0,0-.22-.69,8.87,8.87,0,0,0,1.48.12A9.29,9.29,0,0,0,56.21,71.37Z"></path><path class="cls-10" d="M52.38,24.71a2,2,0,1,1-2-2,2,2,0,0,1,2,2"></path><path class="cls-10" d="M66.83,28a2,2,0,1,1-2-2,2,2,0,0,1,2,2"></path><path class="cls-10" d="M58.38,37.44a2,2,0,1,1-2-2,2,2,0,0,1,2,2"></path><path class="cls-10" d="M70.91,40.53a2,2,0,1,1-2-2,2,2,0,0,1,2,2"></path><path class="cls-10" d="M88.91,54.63a2,2,0,1,1-2-2,2,2,0,0,1,2,2"></path><path class="cls-10" d="M75.77,51.83a2,2,0,1,1-2-2,2,2,0,0,1,2,2"></path><path class="cls-10" d="M84.73,41.89a2,2,0,1,1-2-2,2,2,0,0,1,2,2"></path><path class="cls-8" d="M62.64,88.38a.52.52,0,0,1-.35-.14.51.51,0,0,1,0-.73l3.94-4.28a.52.52,0,1,1,.76.7L63,88.21A.52.52,0,0,1,62.64,88.38Z"></path><path class="cls-11" d="M56.28,61.62h0a6.46,6.46,0,0,1-5.78-9.35l4.81-9.63a1.08,1.08,0,0,1,1.94,0l4.81,9.63a6.46,6.46,0,0,1-5.78,9.35"></path><path class="cls-8" d="M61.23,73.4c0,1.76-2.64,3.19-5.89,3.19s-5.9-1.43-5.9-3.19,2.64-3.2,5.9-3.2,5.89,1.43,5.89,3.2"></path><path class="cls-7" d="M62.06,52.27l-2.48-5a31.78,31.78,0,0,0-5.85,5.37,15.86,15.86,0,0,0-3,5.79,6.46,6.46,0,0,0,11.33-6.19Z"></path><path class="cls-12" d="M98,44.88l22.74-5.18h0c-8.61,2-19.77-.07-27.08-1.93A42.07,42.07,0,0,1,98,44.88Z"></path></g></g></svg>