<svg xmlns="http://www.w3.org/2000/svg" viewBox="0 0 472 640" fill="none"><g clip-path="url(#clip0)"><path d="M472 0H0V679H472V0Z" fill="#01A652"></path><path d="M557.27 393.31L476.15 377.24C473.04 376.63 467.48 376.63 461.15 377.24L387.78 384.32L395.53 381.41C397.74 380.58 396.97 379.9 393.83 379.9H357.33C354.046 379.922 350.784 380.431 347.65 381.41L323.38 390.53L294.62 393.31C286.79 394.06 278.95 395.62 274.41 397.31L145 446C138.41 448.48 140.7 450.49 150.11 450.49H205.57L178.1 456C165.42 458.54 159.62 461.87 165.15 463.43C172.99 465.63 185.64 466.8 201.71 466.8H203.78C205.15 466.8 206.58 466.8 208.06 466.7L262.85 466.85C263.517 466.85 264.227 466.85 264.98 466.85H266.33H266.45H266.33H302.78C313.54 466.847 324.214 464.941 334.31 461.22C336.043 460.741 337.738 460.132 339.38 459.4L341.63 458.34C347.91 455.34 343.02 453.34 330.7 453.74L318.86 454.13L326.65 450.47H397.78C407.19 450.47 420.16 448.47 426.78 445.98L556.12 397.33C560.67 395.62 561.12 394.06 557.31 393.33" fill="#02873E"></path><path d="M152 131.73C151.394 131.097 150.965 130.315 150.756 129.464C150.547 128.613 150.566 127.722 150.81 126.88C151.231 125.408 151.469 123.89 151.52 122.36C151.638 118.713 150.703 115.109 148.826 111.979C146.95 108.849 144.212 106.325 140.94 104.71C137.831 103.187 135.353 100.621 133.94 97.46C132.046 93.2114 128.945 89.6129 125.023 87.1115C121.102 84.6101 116.531 83.316 111.88 83.39C109.075 83.488 106.278 83.0305 103.651 82.0437C101.024 81.0569 98.6171 79.5603 96.5701 77.64C92.6117 73.7887 87.6669 71.1048 82.2806 69.8841C76.8944 68.6635 71.2757 68.9533 66.0436 70.7218C60.8116 72.4903 56.1692 75.6687 52.6281 79.9069C49.087 84.1451 46.7845 89.2786 45.9744 94.7417C45.1643 100.205 45.878 105.786 48.0368 110.869C50.1957 115.952 53.7159 120.341 58.2096 123.552C62.7033 126.763 67.9961 128.671 73.5049 129.065C79.0136 129.46 84.5244 128.327 89.4301 125.79C90.8664 125.053 92.4775 124.725 94.0876 124.841C95.6977 124.958 97.2448 125.514 98.5601 126.45C100.436 127.782 102.498 128.83 104.68 129.56C107.255 130.434 109.961 130.857 112.68 130.81C113.557 130.793 114.426 130.986 115.214 131.372C116.001 131.758 116.686 132.327 117.21 133.03C119.046 135.52 121.465 137.521 124.255 138.858C127.044 140.195 130.119 140.828 133.21 140.7C134.603 140.649 135.986 140.438 137.33 140.07C137.698 141.325 138.345 142.481 139.222 143.451C140.1 144.421 141.186 145.18 142.399 145.671C143.611 146.161 144.919 146.371 146.224 146.285C147.53 146.198 148.799 145.817 149.936 145.171C151.073 144.524 152.049 143.629 152.791 142.552C153.533 141.474 154.022 140.243 154.22 138.95C154.419 137.657 154.322 136.336 153.938 135.086C153.553 133.835 152.891 132.688 152 131.73" fill="#FAF6F4"></path><path d="M369 189.89L247.58 130.1C245.284 128.97 242.759 128.382 240.2 128.382C237.641 128.382 235.116 128.97 232.82 130.1L179.33 156.44V145.59C179.331 144.856 179.188 144.13 178.908 143.452C178.628 142.773 178.218 142.157 177.699 141.638C177.181 141.119 176.565 140.707 175.888 140.426C175.21 140.145 174.484 140 173.75 140H138C137.267 140 136.54 140.145 135.862 140.426C135.185 140.707 134.569 141.119 134.051 141.638C133.533 142.157 133.122 142.773 132.842 143.452C132.562 144.13 132.419 144.856 132.42 145.59V179.59L111.42 189.92C108.619 191.298 106.261 193.435 104.614 196.086C102.966 198.738 102.095 201.798 102.1 204.92V386C102.1 390.429 103.86 394.677 106.991 397.809C110.123 400.941 114.371 402.7 118.8 402.7H361.59C363.784 402.701 365.956 402.27 367.982 401.431C370.009 400.593 371.851 399.363 373.402 397.812C374.953 396.261 376.183 394.419 377.022 392.392C377.86 390.366 378.291 388.193 378.29 386V204.87C378.294 201.755 377.426 198.701 375.784 196.054C374.142 193.406 371.792 191.271 369 189.89Z" fill="#FFCE00"></path><path d="M262.1 310.17H218.29C216.451 310.17 214.688 310.9 213.386 312.199C212.085 313.498 211.353 315.261 211.35 317.1V380.42C211.353 382.259 212.085 384.022 213.386 385.321C214.688 386.62 216.451 387.35 218.29 387.35H262.1C263.011 387.351 263.913 387.173 264.755 386.825C265.597 386.478 266.362 385.967 267.007 385.324C267.651 384.68 268.163 383.916 268.512 383.074C268.861 382.233 269.04 381.331 269.04 380.42V317.1C269.04 316.189 268.861 315.287 268.512 314.446C268.163 313.604 267.651 312.84 267.007 312.196C266.362 311.553 265.597 311.042 264.755 310.695C263.913 310.347 263.011 310.169 262.1 310.17Z" fill="#FAF6F4"></path><path d="M256.8 358.47L269.04 367.91V353.92L262.52 348.76L256.8 358.47Z" fill="#EAE7E4"></path><path d="M263.71 352.36C263.712 353.569 263.355 354.751 262.685 355.757C262.015 356.763 261.061 357.548 259.945 358.012C258.829 358.476 257.6 358.598 256.414 358.364C255.228 358.129 254.139 357.548 253.283 356.694C252.428 355.84 251.845 354.751 251.608 353.566C251.372 352.38 251.492 351.151 251.954 350.034C252.416 348.917 253.199 347.962 254.204 347.29C255.209 346.619 256.391 346.26 257.6 346.26C259.219 346.26 260.771 346.902 261.917 348.046C263.062 349.19 263.707 350.741 263.71 352.36Z" fill="#FFCE00"></path><path d="M191.18 279.45H155.1C154.143 279.45 153.195 279.261 152.31 278.895C151.426 278.529 150.622 277.992 149.945 277.315C149.268 276.638 148.731 275.834 148.365 274.95C147.999 274.065 147.81 273.117 147.81 272.16V236.08C147.809 235.122 147.996 234.173 148.362 233.287C148.728 232.402 149.265 231.597 149.942 230.919C150.619 230.241 151.423 229.703 152.308 229.336C153.193 228.969 154.142 228.78 155.1 228.78H191.18C193.116 228.78 194.973 229.549 196.342 230.918C197.711 232.287 198.48 234.144 198.48 236.08V272.16C198.48 273.118 198.291 274.067 197.924 274.952C197.557 275.837 197.019 276.641 196.341 277.318C195.663 277.995 194.859 278.532 193.973 278.898C193.087 279.264 192.138 279.451 191.18 279.45" fill="#FFE14F"></path><path d="M199.84 248.19H178.97V227.24H167.31V248.19H146.44V259.86H167.31V281H178.97V259.86H199.84V248.19Z" fill="#FFCE00"></path><path d="M325.29 279.45H289.21C288.252 279.451 287.303 279.264 286.417 278.898C285.532 278.532 284.727 277.995 284.049 277.318C283.371 276.641 282.833 275.837 282.466 274.952C282.099 274.067 281.91 273.118 281.91 272.16V236.08C281.91 235.121 282.099 234.172 282.466 233.286C282.833 232.401 283.37 231.596 284.048 230.918C284.726 230.24 285.531 229.703 286.417 229.336C287.302 228.969 288.251 228.78 289.21 228.78H325.29C327.226 228.78 329.083 229.549 330.452 230.918C331.821 232.287 332.59 234.144 332.59 236.08V272.16C332.59 273.118 332.401 274.067 332.034 274.952C331.667 275.837 331.129 276.641 330.451 277.318C329.773 277.995 328.969 278.532 328.083 278.898C327.197 279.264 326.248 279.451 325.29 279.45" fill="#FFE14F"></path><path d="M333.95 248.19H313.08V227.24H301.42V248.19H280.55V259.86H301.42V281H313.08V259.86H333.95V248.19Z" fill="#FFCE00"></path><path d="M24.3901 155H24.2701C21.8632 154.79 19.5697 153.883 17.6701 152.39C16.3347 151.298 14.7674 150.526 13.0879 150.134C11.4084 149.741 9.66136 149.737 7.98029 150.123C6.29922 150.509 4.7287 151.274 3.38888 152.361C2.04905 153.447 0.97541 154.825 0.250081 156.39C0.0525096 156.828 -0.261939 157.204 -0.658811 157.476C-1.05568 157.747 -1.51966 157.905 -1.99992 157.93C-3.16533 157.955 -4.30761 158.26 -5.32992 158.82C-6.85012 159.668 -8.01957 161.028 -8.62953 162.658C-9.23949 164.289 -9.25026 166.083 -8.65992 167.72C-8.31935 168.643 -7.7953 169.488 -7.11935 170.204C-6.44341 170.919 -5.62957 171.491 -4.72691 171.883C-3.82425 172.276 -2.85146 172.481 -1.86719 172.487C-0.882924 172.494 0.0924349 172.301 1.00008 171.92C1.44506 171.732 1.87044 171.501 2.27008 171.23C2.68219 170.941 3.16743 170.775 3.66989 170.75C4.17235 170.726 4.67159 170.843 5.11008 171.09C6.6761 171.954 8.42579 172.433 10.2138 172.485C12.0017 172.537 13.7763 172.162 15.3901 171.39C15.9683 171.092 16.6095 170.936 17.2601 170.936C17.9107 170.936 18.5518 171.092 19.1301 171.39C20.476 172.135 21.9943 172.512 23.5322 172.484C25.0702 172.456 26.5737 172.023 27.8913 171.229C29.209 170.436 30.2945 169.309 31.0386 167.963C31.7827 166.616 32.1591 165.098 32.1301 163.56C32.0773 161.443 31.2674 159.415 29.8472 157.845C28.4271 156.274 26.4909 155.265 24.3901 155" fill="#FAF6F4"></path><path d="M179.33 156.44V145.59C179.331 144.907 179.209 144.23 178.97 143.59C175.76 149.43 167.87 158.17 160.55 165.68L179.33 156.44Z" fill="#FFB700"></path><path d="M327.05 432C326.683 429.385 325.804 426.867 324.464 424.592C323.125 422.316 321.35 420.326 319.241 418.737C317.132 417.147 314.731 415.988 312.174 415.326C309.617 414.665 306.955 414.513 304.34 414.88L293.77 416.36L291.86 402.71H247.21L253.35 446.36C254.091 451.64 256.899 456.409 261.156 459.62C265.412 462.83 270.77 464.218 276.05 463.48L299.92 460.13L310.48 458.65C313.095 458.283 315.613 457.404 317.888 456.065C320.164 454.725 322.154 452.95 323.743 450.841C325.333 448.732 326.492 446.331 327.154 443.774C327.815 441.217 327.967 438.555 327.6 435.94L327.05 432Z" fill="#FFB700"></path><path d="M214.84 419.25L225 402.66H173.17L160.61 423.21C159.23 425.462 158.308 427.965 157.896 430.574C157.484 433.183 157.591 435.847 158.209 438.415C158.828 440.983 159.946 443.404 161.501 445.539C163.056 447.675 165.016 449.483 167.27 450.86C180.712 459.081 196.163 463.431 211.92 463.43H213.92C219.254 463.43 224.369 461.311 228.14 457.54C231.911 453.769 234.03 448.654 234.03 443.32V439.32C234.025 434.149 232.029 429.179 228.455 425.441C224.882 421.704 220.006 419.487 214.84 419.25V419.25Z" fill="#FFCE00"></path><path d="M187 402.66C197.06 416.13 215 436.73 234.06 442.37V439.37C234.06 434.191 232.061 429.211 228.481 425.469C224.901 421.726 220.014 419.509 214.84 419.28L225 402.66H187Z" fill="#FFB700"></path></g><defs><clipPath id="clip0"><rect width="472" height="640" fill="white"></rect></clipPath></defs></svg>