<svg xmlns="http://www.w3.org/2000/svg" viewBox="0 0 270 333" fill="none"><rect width="270" height="333" fill="#E5E5E5"></rect><rect width="270" height="333" fill="#FFCE00"></rect><path d="M140.007 81.8325C140.007 84.8863 139.768 87.9401 139.244 90.9939V91.0417C139.196 91.4711 139.101 91.8528 139.005 92.2823C139.005 92.33 139.005 92.3777 138.958 92.4254C138.862 92.8071 138.815 93.1889 138.719 93.5706C138.719 93.666 138.672 93.7137 138.672 93.8092C138.576 94.1432 138.529 94.5249 138.433 94.8589C138.433 94.9543 138.385 95.0498 138.338 95.1452C138.242 95.4792 138.147 95.8132 138.099 96.1472C138.052 96.2427 138.052 96.3858 138.004 96.4812C137.909 96.8152 137.813 97.1015 137.718 97.4356C137.67 97.5787 137.623 97.7218 137.575 97.865C137.479 98.1513 137.384 98.4376 137.289 98.7239C137.241 98.867 137.193 99.0102 137.146 99.201C137.05 99.4873 136.955 99.7259 136.86 100.012C136.812 100.203 136.717 100.346 136.669 100.537C136.574 100.776 136.478 101.062 136.383 101.301C136.335 101.491 136.24 101.682 136.144 101.873C136.049 102.112 135.954 102.35 135.858 102.589C135.763 102.78 135.715 102.971 135.62 103.161C135.525 103.4 135.429 103.639 135.334 103.829C135.238 104.02 135.143 104.211 135.048 104.45C134.952 104.688 134.857 104.879 134.762 105.118C134.666 105.309 134.571 105.547 134.475 105.738C134.38 105.881 134.332 106.072 134.237 106.215C134.189 106.311 134.142 106.406 134.094 106.502H150.115C150.497 104.211 151.26 102.064 152.357 100.012C144.87 96.8153 140.245 89.5625 140.007 81.8325Z" fill="#FFCE00"></path><path d="M225.55 5.34416C224.977 5.43959 224.358 5.53502 223.785 5.58274C221.735 5.96447 219.637 6.10761 217.491 6.0599C210.291 6.01218 202.757 3.81726 196.463 0H171.668C171.525 0.524873 171.382 1.09746 171.191 1.62233L171.096 1.86091C170.953 2.29036 170.81 2.7198 170.667 3.14924L202.757 3.72183C203.139 3.72183 203.52 3.76954 203.854 3.86497C203.902 3.86497 203.997 3.86497 204.045 3.91269C204.188 3.96041 204.331 3.96041 204.426 4.00812C204.521 4.05584 204.617 4.05584 204.712 4.10355C204.808 4.15127 204.951 4.19898 205.046 4.2467C205.189 4.29442 205.284 4.34213 205.38 4.43756C205.427 4.48528 205.523 4.48528 205.571 4.53299C205.571 4.53299 205.618 4.53299 205.618 4.58071C205.666 4.62843 205.761 4.67614 205.809 4.67614C205.904 4.72386 206.047 4.81929 206.143 4.867C206.19 4.91472 206.238 4.91472 206.286 4.96244C206.476 5.10558 206.667 5.29645 206.858 5.43959C206.906 5.48731 207.001 5.58274 207.049 5.63046L207.096 5.67817C208.145 6.77563 208.765 8.30254 208.718 9.97259C208.718 10.9746 208.431 11.9289 207.955 12.8355L193.078 39.6995C191.504 42.5624 188.023 43.6599 185.115 42.2761C185.067 42.2761 185.067 42.2284 185.019 42.2284C184.924 42.1807 184.876 42.133 184.781 42.0853C184.733 42.0376 184.685 42.0376 184.638 41.9898C184.59 41.9421 184.495 41.8944 184.447 41.8467C184.352 41.799 184.209 41.7036 184.113 41.6558C184.018 41.6081 183.97 41.5604 183.875 41.465C183.779 41.3695 183.684 41.3218 183.589 41.2264C183.493 41.131 183.446 41.0832 183.35 40.9878C183.255 40.8924 183.207 40.8447 183.16 40.7492C183.017 40.6061 182.874 40.4152 182.778 40.2721L164.563 15.0305C152.452 32.4467 130.422 39.9858 110.205 33.5919C128.801 42.9442 139.673 61.5533 140.007 81.0213C140.054 78.4447 140.531 75.8203 141.628 73.3391C144.966 65.466 152.786 60.599 161.13 60.933H161.178C161.464 60.933 161.798 60.9807 162.084 60.9807C162.132 60.9807 162.179 60.9807 162.179 60.9807C162.465 61.0284 162.799 61.0284 163.085 61.0761C163.133 61.0761 163.181 61.0761 163.181 61.0761C163.514 61.1239 163.848 61.1716 164.182 61.267C165.136 50.0538 175.006 41.7513 186.211 42.7533C195.796 43.5645 203.472 51.0081 204.665 60.5513C214.916 58.1655 225.311 64.0345 228.601 74.1025C231.701 83.598 227.457 93.8568 218.683 98.4376C218.397 98.5807 218.159 98.7239 217.873 98.8193C219.303 101.157 220.209 103.782 220.591 106.502H419.952V0H237.137C233.846 2.67208 229.841 4.53299 225.55 5.34416ZM238.042 64.7025C236.469 64.9411 234.895 65.0843 233.37 65.0843C218.397 65.2274 204.617 54.7299 201.327 39.9381C197.703 23.5716 208.288 8.15939 224.93 5.48731C226.503 5.24873 228.077 5.10558 229.603 5.10558C244.575 4.96244 258.355 15.4599 261.645 30.2518C265.269 46.6183 254.731 62.0305 238.042 64.7025Z" fill="#FFCE00"></path><path d="M229.889 141.763H228.887C228.792 141.763 228.697 141.763 228.601 141.763C215.441 141.907 205.094 149.112 200.325 153.215L199.753 153.692L199.658 153.788L199.229 154.17C198.084 155.219 197.417 155.887 197.417 155.887C193.841 159.943 189.692 163.522 185.21 166.528L185.115 166.576C184.685 166.862 184.304 167.1 183.875 167.387L183.684 167.482C183.303 167.721 182.921 167.959 182.492 168.198L182.254 168.341L181.109 169.009L180.871 169.152C180.489 169.391 180.108 169.582 179.726 169.773L179.44 169.916C179.059 170.107 178.677 170.297 178.248 170.488L177.962 170.631L176.77 171.204L176.532 171.299L175.197 171.872L175.054 171.92C173.528 172.588 172.002 173.16 170.428 173.685L170.333 173.733C169.856 173.924 169.379 174.067 168.902 174.21L168.521 174.306C168.14 174.401 167.758 174.544 167.377 174.64L166.852 174.783C166.518 174.878 166.137 174.974 165.803 175.069L165.231 175.212L164.23 175.594L163.61 175.737L162.656 175.928C162.418 175.976 162.227 176.023 161.988 176.071L161.035 176.262L160.32 176.357L159.366 176.501L158.651 176.596C158.317 176.644 158.031 176.691 157.697 176.691L156.982 176.787L156.028 176.882L155.313 176.93C154.979 176.978 154.645 176.978 154.312 176.978L153.644 177.025L152.595 177.073H151.975H151.927C151.451 177.073 150.974 177.073 150.449 177.073C150.402 177.073 150.402 177.073 150.402 177.073H122.459H101.527C101.479 177.073 101.431 177.073 101.384 177.073C64.3818 176.978 34.437 146.964 34.437 109.937C34.437 108.362 35.486 107.074 36.8688 106.597C37.2026 106.502 37.5364 106.454 37.9179 106.454C24.8528 80.9259 34.0555 49.6244 58.8506 35.2142L42.6384 42.9442C42.4477 43.0396 42.257 43.0873 42.0662 43.135C40.7788 43.469 39.3483 42.9919 38.5854 41.8467C38.3947 41.6081 38.2993 41.3218 38.204 40.9878L33.5787 25.7665L23.2792 30.6812C18.4156 32.9716 12.646 30.9198 10.3572 26.0528C7.92537 20.8995 6.7333 15.3645 6.82867 9.82944C6.87635 6.48934 7.35318 3.19695 8.30684 0H-150V188H420V141.763H248.247H229.889ZM152.547 177.073L153.596 177.025L152.547 177.073Z" fill="#FFCE00"></path><path d="M71.7726 7.5868L61.2824 12.5492L70.2945 25.6711C70.3898 25.8142 70.4375 25.9574 70.5329 26.0528C70.5329 26.0528 70.5329 26.1005 70.5806 26.1005V26.1482C70.6282 26.1959 70.6282 26.2437 70.6759 26.3391C70.6759 26.3868 70.7236 26.4345 70.7236 26.4822C70.7236 26.5299 70.7713 26.5777 70.7713 26.6731C70.7713 26.7208 70.819 26.7685 70.819 26.8162C70.819 26.864 70.819 26.9117 70.8667 26.9594C70.8667 27.0071 70.8667 27.0548 70.9143 27.1025C70.9143 27.1503 70.9143 27.198 70.9143 27.2457C70.9143 27.2934 70.9143 27.3411 70.9143 27.3888C70.9143 27.4365 70.9143 27.4843 70.9143 27.532C70.9143 27.5797 70.9143 27.6274 70.9143 27.7228C70.9143 27.7706 70.9143 27.8183 70.9143 27.866C70.9143 27.9137 70.9143 27.9614 70.9143 28.0091C70.9143 28.0569 70.9143 28.1046 70.8667 28.1523C70.8667 28.2 70.8667 28.2477 70.819 28.2954C70.819 28.3431 70.7713 28.3909 70.7713 28.4386C70.7713 28.4863 70.7236 28.534 70.7236 28.5817C70.7236 28.6294 70.6759 28.6772 70.6759 28.7249C70.6759 28.7726 70.6283 28.8203 70.6283 28.868C70.5806 28.9157 70.5806 28.9634 70.5329 29.0112C70.5329 29.0589 70.4852 29.1066 70.4852 29.1066C70.4375 29.1543 70.4375 29.202 70.3898 29.2497C70.3422 29.2975 70.3421 29.3452 70.2945 29.3452C70.2468 29.3929 70.2468 29.4406 70.1991 29.4883C70.1514 29.536 70.1514 29.5838 70.1037 29.6315C70.0561 29.6792 70.056 29.6792 70.0084 29.7269C69.9607 29.7746 69.913 29.8223 69.8653 29.87C69.8176 29.9178 69.8176 29.9178 69.77 29.9655C69.7223 30.0132 69.6746 30.0609 69.6269 30.0609C69.6269 30.0609 69.5792 30.0609 69.5792 30.1086C69.5792 30.1086 69.5315 30.1086 69.5315 30.1563C69.3885 30.2518 69.2931 30.2995 69.1501 30.3949L67.052 31.397C67.7196 31.1584 68.3872 30.9198 69.0547 30.6812C69.1501 30.6335 69.1978 30.6335 69.2931 30.5858C69.9607 30.3472 70.6759 30.1563 71.3912 29.9655C76.4932 28.534 81.786 27.866 87.0311 27.9614C87.0788 27.9614 87.1265 27.9614 87.1742 27.9614C87.8894 27.9614 88.6046 28.0091 89.2722 28.0569C89.3676 28.0569 89.4629 28.0569 89.5106 28.0569C90.1305 28.1046 90.7504 28.1523 91.3703 28.2C91.4656 28.2 91.561 28.2 91.704 28.2477C92.3239 28.2954 92.9438 28.3909 93.516 28.4863C93.7544 28.534 93.9928 28.534 94.2312 28.5817C94.708 28.6772 95.2325 28.7249 95.7094 28.8203C96.0908 28.868 96.4246 28.9635 96.8061 29.0589C97.0922 29.1066 97.3306 29.1543 97.6167 29.2497C99.3333 29.6315 101.05 30.0609 102.766 30.6335C102.29 30.3949 101.765 30.1086 101.288 29.8223C98.618 28.3431 96.0908 26.6254 93.7067 24.6213C87.6033 19.5157 82.835 12.9787 79.831 5.63046C79.0681 3.76954 78.4482 1.90863 77.9237 0H77.2562C76.827 3.19695 74.872 6.10761 71.7726 7.5868Z" fill="#FFCE00"></path><path d="M103.1 0C95.7571 3.24467 87.8417 5.1533 79.7833 5.53503C82.7873 12.931 87.5079 19.4203 93.6113 24.5259L107.296 0H103.1Z" fill="#F2F2F2"></path><path d="M77.9237 0C78.4482 1.90863 79.0681 3.76954 79.7833 5.58274C87.8417 5.1533 95.7094 3.24467 103.1 0.0477157H77.9237V0Z" fill="white"></path><path d="M183.207 40.797C183.255 40.8924 183.35 40.9401 183.398 41.0355C183.493 41.131 183.541 41.1787 183.636 41.2741C183.732 41.3695 183.827 41.4173 183.923 41.5127C184.018 41.5604 184.066 41.6081 184.161 41.7036C184.256 41.799 184.352 41.8467 184.495 41.8944C184.542 41.9421 184.638 41.9898 184.685 42.0376C184.829 42.133 184.972 42.1807 185.067 42.2761C185.115 42.2761 185.115 42.3239 185.162 42.3239C187.117 43.2305 189.501 43.0873 191.361 41.7513C192.076 41.2264 192.696 40.5584 193.125 39.7472L208.002 12.8832C209.337 10.4975 208.908 7.63452 207.144 5.7736L207.096 5.72589C207.049 5.67817 206.953 5.58274 206.906 5.53503C206.715 5.34416 206.524 5.20102 206.333 5.05787C206.286 5.01015 206.238 5.01015 206.19 4.96244C206.095 4.867 205.952 4.81929 205.857 4.77157C205.809 4.72386 205.714 4.67614 205.666 4.67614C205.666 4.67614 205.618 4.67614 205.618 4.62843C205.571 4.58071 205.475 4.58071 205.427 4.53299C205.332 4.48528 205.189 4.43756 205.094 4.34213C204.998 4.29442 204.855 4.2467 204.76 4.19898C204.665 4.15127 204.569 4.15127 204.474 4.10355C204.331 4.05584 204.235 4.00812 204.092 4.00812C204.045 4.00812 203.949 3.96041 203.902 3.96041C203.52 3.86497 203.186 3.81726 202.805 3.81726L170.714 3.24467C170.857 2.81523 171.001 2.38579 171.144 1.90863L171.239 1.67005C171.382 1.14518 171.573 0.620305 171.716 0.0477157H152.786C152.5 2.09949 151.832 4.05584 150.831 5.86904V5.91675C146.205 14.2193 135.763 17.1777 127.466 12.597L115.784 6.10761C113.924 5.10558 113.257 2.76751 114.306 0.906599L114.782 0H107.392L93.659 24.5736C95.9955 26.5299 98.5227 28.2477 101.193 29.7269C101.67 30.0132 102.194 30.2518 102.671 30.5381C105.246 31.397 107.725 32.399 110.157 33.5919C130.422 39.9858 152.452 32.4467 164.611 15.0782L182.826 40.2721C182.969 40.4629 183.064 40.6061 183.207 40.797Z" fill="#49CE7F"></path><path d="M228.601 74.0548C225.359 64.0345 214.964 58.1177 204.665 60.5035C203.234 49.3381 193.03 41.465 181.872 42.9441C172.431 44.1848 165.088 51.7716 164.23 61.267C163.896 61.2193 163.562 61.1238 163.228 61.0761C163.181 61.0761 163.133 61.0761 163.133 61.0761C162.847 61.0284 162.513 60.9807 162.227 60.9807C162.179 60.9807 162.131 60.9807 162.131 60.9807C161.845 60.933 161.512 60.933 161.226 60.933H161.178C151.307 60.5512 142.391 67.4223 140.484 77.4426C138.672 86.8903 143.678 96.2903 152.5 100.012C151.403 102.016 150.64 104.211 150.258 106.501H220.686C220.304 103.782 219.398 101.157 217.968 98.8193C218.254 98.6761 218.493 98.5807 218.779 98.4375C227.457 93.8091 231.701 83.5502 228.601 74.0548Z" fill="#01A652"></path><path d="M95.6617 28.7726C95.1849 28.6772 94.6604 28.5818 94.1835 28.534C93.9451 28.4863 93.7067 28.4863 93.4683 28.4386C92.8484 28.3432 92.2285 28.2955 91.6563 28.2C91.561 28.2 91.4656 28.2 91.3226 28.1523C90.7027 28.1046 90.0828 28.0569 89.463 28.0092C89.3676 28.0092 89.2722 28.0092 89.2245 28.0092C88.5093 27.9614 87.8417 27.9614 87.1265 27.9137C87.0788 27.9137 87.0311 27.9137 86.9834 27.9137C81.7383 27.8183 76.4932 28.4863 71.3435 29.9178C70.6282 30.1087 69.9607 30.3472 69.2454 30.5381C69.1501 30.5858 69.1024 30.5858 69.007 30.6335C68.3395 30.8721 67.6719 31.1107 67.0044 31.3493L58.8983 35.2142C34.1509 49.6244 24.9004 80.9259 37.9178 106.454H134.189C134.332 106.215 134.428 105.929 134.571 105.69C134.666 105.5 134.762 105.261 134.857 105.07C134.952 104.832 135.048 104.641 135.143 104.402C135.238 104.211 135.334 104.02 135.429 103.782C135.525 103.543 135.62 103.352 135.715 103.114C135.811 102.923 135.906 102.732 135.954 102.541C136.049 102.303 136.144 102.064 136.24 101.825C136.335 101.635 136.383 101.444 136.478 101.253C136.574 101.014 136.669 100.728 136.764 100.489C136.812 100.299 136.907 100.155 136.955 99.9645C137.05 99.6782 137.146 99.4396 137.241 99.1533C137.289 99.0102 137.336 98.867 137.384 98.6762C137.48 98.3899 137.575 98.1036 137.67 97.8173C137.718 97.6742 137.766 97.531 137.813 97.3879C137.909 97.0538 138.004 96.7676 138.099 96.4335C138.147 96.3381 138.147 96.195 138.195 96.0995C138.29 95.7655 138.386 95.4315 138.433 95.0975C138.481 95.0021 138.481 94.9066 138.529 94.8112C138.624 94.4772 138.719 94.0955 138.767 93.7615C138.767 93.666 138.815 93.6183 138.815 93.5229C138.91 93.1412 138.958 92.7594 139.053 92.3777C139.053 92.33 139.053 92.2823 139.101 92.2346C139.196 91.8051 139.244 91.4234 139.339 90.9939V90.9462C139.864 87.8447 140.102 84.6955 140.102 81.5939C140.102 81.4031 140.102 81.2599 140.102 81.0691C139.768 61.6965 129.04 43.0873 110.539 33.6873C106.438 31.5878 102.099 30.0609 97.6644 29.1066C97.3783 29.0589 97.1399 29.0112 96.8538 28.9158C96.377 28.9158 96.0432 28.8203 95.6617 28.7726Z" fill="#FF7E1D"></path><path d="M150.163 106.454H134.142H37.8702C37.5364 106.454 37.1549 106.501 36.8211 106.597C35.3907 107.026 34.3893 108.362 34.3893 109.937C34.3893 146.964 64.3341 176.978 101.336 177.073C101.384 177.073 101.431 177.073 101.479 177.073H122.412C123.27 177.073 124.128 177.025 124.987 176.978C136.717 176.5 146.396 174.019 155.694 167.005C156.41 166.48 157.125 165.908 157.84 165.287C163.133 160.85 167.71 155.506 173.289 151.402C177.485 148.348 182.301 146.249 187.499 144.817C190.98 143.863 194.651 143.195 198.418 142.718C205.094 141.907 212.008 141.716 218.636 141.716C218.779 141.716 218.969 141.716 219.112 141.716C219.828 141.716 220.495 141.716 221.21 141.716C223.785 141.716 226.36 141.716 228.792 141.716H228.84H229.841C236.421 141.668 242.477 141.716 248.199 141.716H419.952V106.406H220.591H150.163V106.454ZM123.938 131.552C124.033 131.505 124.128 131.457 124.224 131.409C124.987 131.075 125.845 131.457 126.179 132.22C126.322 132.602 126.56 132.984 126.799 133.318C126.989 133.556 127.18 133.747 127.371 133.938C128.515 135.036 130.184 135.704 131.948 135.704C133.713 135.704 135.381 135.036 136.526 133.938C136.717 133.747 136.86 133.556 137.05 133.365C137.336 133.031 137.575 132.602 137.718 132.22C137.813 131.934 138.004 131.743 138.242 131.6C138.385 131.505 138.529 131.409 138.719 131.361C138.862 131.314 138.958 131.314 139.101 131.314C139.291 131.314 139.482 131.361 139.673 131.409C140.436 131.743 140.817 132.602 140.484 133.365C139.196 136.562 135.763 138.71 131.948 138.71C131.948 138.71 131.948 138.71 131.901 138.71C128.277 138.71 124.987 136.753 123.604 133.795C123.556 133.652 123.461 133.509 123.413 133.365V133.318C123.127 132.65 123.365 131.934 123.938 131.552ZM102.719 131.409C103.482 131.123 104.388 131.457 104.674 132.22C105.532 134.32 107.821 135.704 110.443 135.704C113.066 135.704 115.355 134.32 116.213 132.22C116.404 131.839 116.69 131.6 117.071 131.457C117.167 131.409 117.214 131.409 117.31 131.409C117.357 131.409 117.357 131.409 117.405 131.409C117.453 131.409 117.5 131.409 117.596 131.409C117.643 131.409 117.691 131.409 117.739 131.409C117.787 131.409 117.834 131.409 117.834 131.409C117.882 131.409 117.977 131.457 118.025 131.457C118.025 131.457 118.025 131.457 118.073 131.457C118.073 131.457 118.073 131.457 118.12 131.457C118.168 131.457 118.216 131.505 118.263 131.505C118.979 131.839 119.312 132.65 119.026 133.365C117.739 136.562 114.306 138.71 110.491 138.71C106.724 138.71 103.291 136.61 102.004 133.413C102.004 133.365 102.004 133.365 101.956 133.318C101.574 132.602 101.956 131.743 102.719 131.409ZM153.262 136.562C153.501 136.372 153.739 136.276 154.025 136.276C154.073 136.276 154.121 136.276 154.168 136.276C154.598 136.276 155.027 136.467 155.313 136.801C155.837 137.421 155.79 138.376 155.122 138.9L155.074 138.948C145.824 146.392 133.76 150.495 121.22 150.495C108.679 150.495 96.6153 146.392 87.3649 138.948L87.3172 138.9C86.6973 138.376 86.602 137.421 87.1265 136.801C87.3649 136.515 87.6987 136.324 88.0801 136.276C88.0801 136.276 88.0801 136.276 88.1278 136.276C88.1755 136.276 88.2232 136.276 88.2709 136.276C88.3186 136.276 88.3662 136.276 88.4139 136.276H88.4616C88.7 136.324 88.9861 136.419 89.1768 136.562L89.2245 136.61C97.9505 143.624 109.299 147.489 121.22 147.489C133.093 147.489 144.489 143.624 153.215 136.61C153.215 136.61 153.262 136.61 153.262 136.562Z" fill="white"></path><path d="M10.3095 26.0528C12.5983 30.9198 18.4156 32.9716 23.2316 30.6812L33.5787 25.7665L37.5841 23.8579L50.4107 17.7503H50.4584C50.4584 17.7503 46.9299 32.9239 39.9205 40.5584C39.4914 41.0355 39.0623 41.465 38.6331 41.8467C39.396 42.9919 40.7788 43.469 42.0663 43.135C42.257 43.0873 42.4477 43.0396 42.6385 42.9442L58.8506 35.2142L66.9567 31.3492L69.0547 30.3472C69.1978 30.2995 69.3408 30.2041 69.4362 30.1086C69.4839 30.1086 69.4839 30.0609 69.5315 30.0609C69.5792 30.0132 69.6269 29.9655 69.6746 29.9655C69.7223 29.9178 69.7223 29.9178 69.77 29.8701C69.8176 29.8223 69.8653 29.7746 69.913 29.7269C69.9607 29.6792 69.9607 29.6792 70.0084 29.6315C70.0561 29.5838 70.1037 29.536 70.1037 29.4883C70.1514 29.4406 70.1514 29.3929 70.1991 29.3452C70.2468 29.2975 70.2468 29.2497 70.2945 29.2497C70.3422 29.202 70.3422 29.1543 70.3898 29.1066C70.3898 29.0589 70.4375 29.0112 70.4375 29.0112C70.4852 28.9635 70.4852 28.9157 70.5329 28.868C70.5329 28.8203 70.5806 28.7726 70.5806 28.7249C70.5806 28.6772 70.6283 28.6294 70.6283 28.5817C70.6283 28.534 70.6759 28.4863 70.6759 28.4386C70.6759 28.3909 70.7236 28.3431 70.7236 28.2954C70.7236 28.2477 70.7713 28.2 70.7713 28.1523C70.7713 28.1046 70.7713 28.0569 70.819 28.0091C70.819 27.9614 70.819 27.9137 70.819 27.866C70.819 27.8183 70.819 27.7706 70.819 27.7228C70.819 27.6751 70.819 27.6274 70.819 27.532C70.819 27.4843 70.819 27.4366 70.819 27.3888C70.819 27.3411 70.819 27.2934 70.819 27.2457C70.819 27.198 70.819 27.1503 70.819 27.1025C70.819 27.0548 70.819 27.0071 70.7713 26.9594C70.7713 26.9117 70.7713 26.864 70.7236 26.8162C70.7236 26.7685 70.7236 26.7208 70.6759 26.6731C70.6759 26.6254 70.6283 26.5777 70.6283 26.4822C70.6283 26.4345 70.5806 26.3868 70.5806 26.3391C70.5806 26.2914 70.5329 26.2437 70.4852 26.1482V26.1005C70.4852 26.1005 70.4852 26.0528 70.4375 26.0528C70.3898 25.9096 70.2945 25.7665 70.1991 25.6711L61.2347 12.5492L71.725 7.5868C74.8243 6.10761 76.7793 3.19695 77.2085 0H8.25917C7.30551 3.19695 6.82868 6.48934 6.781 9.82944C6.68563 15.3645 7.87771 20.8995 10.3095 26.0528Z" fill="#F2F2F2"></path><path d="M229.603 5.10557C228.077 5.10557 226.503 5.24872 224.93 5.4873C208.288 8.15938 197.703 23.5716 201.327 39.9381C204.617 54.7299 218.397 65.2274 233.37 65.0843C234.943 65.0843 236.469 64.9411 238.042 64.7025C254.731 62.0305 265.269 46.6183 261.645 30.2518C258.355 15.4599 244.575 4.96242 229.603 5.10557Z" fill="#FFE14F"></path><path d="M224.071 5.53503L223.785 5.58274C224.358 5.53503 224.977 5.43959 225.55 5.34416C229.841 4.58071 233.799 2.7198 237.137 0H229.889C230.556 0.238579 231.224 0.524873 231.891 0.715736C232.702 0.954315 233.513 1.19289 234.323 1.43147C231.224 3.48325 227.743 4.91472 224.071 5.53503Z" fill="#FFA441"></path><path d="M115.641 6.0599L127.323 12.5492C135.62 17.1777 146.062 14.1716 150.688 5.86904V5.82132C151.689 4.00812 152.356 2.00406 152.643 0H114.639L114.163 0.906599C113.161 2.7198 113.829 5.05787 115.641 6.0599Z" fill="#01A652"></path><path d="M217.539 6.0599C219.685 6.0599 221.783 5.91675 223.785 5.58274L224.071 5.53503C227.743 4.91472 231.224 3.48325 234.276 1.43147C233.465 1.24061 232.654 1.00203 231.844 0.715736C231.176 0.477157 230.509 0.238579 229.841 0H196.415C202.757 3.81726 210.291 6.01218 217.539 6.0599Z" fill="#FF7E1D"></path><path d="M38.6331 41.8467C39.0622 41.465 39.4914 41.0355 39.9205 40.5584C46.7868 32.9716 50.3631 18.0365 50.4107 17.7502L37.5841 23.8579L33.5787 25.7665L38.2039 40.9878C38.2993 41.2741 38.4424 41.5604 38.6331 41.8467Z" fill="#E5E5E5"></path><path d="M150.402 177.073C150.878 177.073 151.355 177.073 151.88 177.073H151.927H152.547L153.596 177.025L154.264 176.978C154.598 176.978 154.931 176.93 155.265 176.93L155.98 176.882L156.934 176.787L157.649 176.691C157.983 176.644 158.269 176.644 158.603 176.596L159.318 176.501L160.272 176.357L160.987 176.262L161.941 176.071C162.179 176.023 162.37 175.976 162.608 175.928L163.562 175.737L164.182 175.594L165.183 175.355L165.755 175.212C166.089 175.117 166.471 175.021 166.804 174.926L167.329 174.783C167.71 174.687 168.092 174.544 168.473 174.449L168.855 174.353C169.332 174.21 169.808 174.067 170.285 173.876L170.381 173.828C171.954 173.304 173.48 172.731 175.006 172.063L175.149 172.015L176.484 171.443L176.722 171.347L177.915 170.775L178.201 170.631C178.582 170.441 178.964 170.25 179.393 170.059L179.679 169.916C180.06 169.725 180.442 169.486 180.823 169.295L181.062 169.152L182.206 168.484L182.444 168.341C182.826 168.103 183.255 167.864 183.636 167.625L183.827 167.53C184.256 167.244 184.638 167.005 185.067 166.719L185.162 166.671C189.692 163.665 193.793 160.086 197.369 156.03C197.369 156.03 197.989 155.362 199.181 154.313L199.61 153.931L199.706 153.836L200.278 153.358C205.094 149.255 215.393 142.05 228.554 141.907C228.649 141.907 228.697 141.907 228.792 141.907C226.313 141.907 223.785 141.907 221.21 141.907C220.543 141.907 219.828 141.907 219.112 141.907C218.969 141.907 218.779 141.907 218.636 141.907C211.96 141.907 205.046 142.097 198.418 142.909C194.651 143.386 190.98 144.006 187.499 145.008C182.301 146.44 177.438 148.539 173.289 151.593C167.71 155.696 163.181 161.041 157.84 165.478C157.125 166.098 156.41 166.671 155.694 167.196C146.396 174.21 136.717 176.691 124.987 177.169C124.128 177.216 123.27 177.216 122.412 177.264H150.354C150.402 177.073 150.402 177.073 150.402 177.073Z" fill="#F2F2F2"></path><path d="M104.674 132.22C104.34 131.457 103.434 131.171 102.671 131.505C101.956 131.839 101.622 132.65 101.908 133.365C101.908 133.413 101.908 133.413 101.956 133.461C103.243 136.61 106.676 138.757 110.443 138.757C114.258 138.757 117.691 136.61 118.979 133.413C119.265 132.65 118.836 131.791 118.073 131.505C118.073 131.505 118.073 131.505 118.025 131.505C118.025 131.505 118.025 131.505 117.977 131.505C117.93 131.505 117.834 131.457 117.786 131.457C117.739 131.457 117.691 131.457 117.691 131.457C117.643 131.457 117.596 131.457 117.548 131.457C117.5 131.457 117.453 131.457 117.357 131.457C117.31 131.457 117.31 131.457 117.262 131.457C117.167 131.457 117.119 131.505 117.024 131.505C116.642 131.648 116.356 131.886 116.165 132.268C115.307 134.367 113.018 135.751 110.396 135.751C107.821 135.751 105.532 134.32 104.674 132.22Z" fill="#E0E0E0"></path><path d="M123.365 133.318V133.365C123.413 133.509 123.508 133.652 123.556 133.795C124.987 136.753 128.229 138.71 131.853 138.71C131.853 138.71 131.853 138.71 131.901 138.71C135.715 138.71 139.148 136.562 140.436 133.365C140.77 132.602 140.388 131.743 139.625 131.409C139.435 131.314 139.244 131.314 139.053 131.314C138.91 131.314 138.815 131.361 138.672 131.361C138.481 131.409 138.338 131.505 138.195 131.6C137.956 131.743 137.813 131.982 137.67 132.22C137.48 132.65 137.289 133.031 137.003 133.365C136.86 133.556 136.669 133.747 136.478 133.938C135.334 135.036 133.665 135.704 131.901 135.704C130.089 135.704 128.467 135.036 127.323 133.938C127.132 133.747 126.942 133.509 126.751 133.318C126.512 132.984 126.274 132.602 126.131 132.22C125.797 131.457 124.939 131.123 124.176 131.409C124.081 131.457 123.985 131.505 123.938 131.552C123.365 131.934 123.127 132.65 123.365 133.318Z" fill="#E0E0E0"></path><path d="M121.22 147.537C109.299 147.537 97.9505 143.672 89.2245 136.658C88.9861 136.467 88.7477 136.372 88.4616 136.324H88.4139C88.3662 136.324 88.3186 136.324 88.2709 136.324C88.2232 136.324 88.1755 136.324 88.1278 136.324C88.1278 136.324 88.1278 136.324 88.0801 136.324C87.7463 136.372 87.4126 136.515 87.1265 136.849C86.602 137.469 86.6497 138.423 87.3172 138.948L87.3649 138.996C96.6153 146.44 108.679 150.543 121.22 150.543C133.76 150.543 145.824 146.44 155.074 138.996C155.742 138.519 155.837 137.564 155.361 136.896C155.074 136.515 154.645 136.324 154.216 136.324C154.168 136.324 154.121 136.324 154.073 136.324C153.787 136.372 153.549 136.419 153.31 136.61L153.263 136.658C144.489 143.672 133.14 147.537 121.22 147.537Z" fill="#E0E0E0"></path></svg>