<svg xmlns="http://www.w3.org/2000/svg" xmlns:xlink="http://www.w3.org/1999/xlink" version="1.1" id="Layer_1" x="0px" y="0px" viewBox="0 0 570 620" style="enable-background:new 0 0 570 620;" xml:space="preserve"><style type="text/css">
	.st0{fill:#FFCC00;}
	.st1{clip-path:url(#SVGID_2_);}
	.st2{fill:#FFB500;}
	.st3{fill:#FFDF4F;}
	.st4{clip-path:url(#SVGID_4_);}
	.st5{fill:#FFB700;}
	.st6{fill:#FF7E1D;}
	.st7{fill:#E8E5E2;}
	.st8{fill:#D8D5D3;}
	.st9{fill:#FFFFFF;}
	.st10{clip-path:url(#SVGID_6_);}
	.st11{fill:#FF6700;}
	.st12{fill:#FFCE00;}
	.st13{clip-path:url(#SVGID_8_);}
	.st14{fill:none;stroke:#FFCC00;stroke-width:9.91;stroke-linecap:round;stroke-miterlimit:10;}
	.st15{clip-path:url(#SVGID_10_);}
	.st16{clip-path:url(#SVGID_12_);}
	.st17{fill:#B8B5B3;}
	.st18{fill:none;stroke:#FFB700;stroke-width:9.91;stroke-linecap:round;stroke-miterlimit:10;}
	.st19{clip-path:url(#SVGID_14_);}
	.st20{clip-path:url(#SVGID_16_);}
	.st21{fill:#FAF6F4;}
	.st22{fill:none;stroke:#FFB700;stroke-width:7.25;stroke-linecap:round;stroke-miterlimit:10;}
	.st23{clip-path:url(#SVGID_18_);}
</style><title>visual-dotcom_article_hero_desktop-mindful_home_office-202000925-kh</title><rect class="st0" width="570" height="620"></rect><g><defs><rect id="SVGID_1_" width="570" height="620"></rect></defs><clipPath id="SVGID_2_"><use xlink:href="#SVGID_1_" style="overflow:visible;"></use></clipPath><g class="st1"><rect x="-148.1" y="-67" class="st0" width="865.3" height="576.9"></rect><polygon class="st2" points="123.7,245.5 45,-137.7 531.5,-173.5 445.5,245.5   "></polygon><circle class="st3" cx="285" cy="909.6" r="765.4"></circle><g><defs><circle id="SVGID_3_" cx="285" cy="909.6" r="765.4"></circle></defs><clipPath id="SVGID_4_"><use xlink:href="#SVGID_3_" style="overflow:visible;"></use></clipPath><g class="st4"><polygon class="st0" points="123.7,245.5 70.3,-14.4 498.8,-14.4 445.5,245.5     "></polygon></g></g><circle class="st0" cx="285" cy="909.6" r="611.5"></circle><path class="st5" d="M140.1,478.6l-83.3-95.2c-3.5-4-9.5-4.4-13.4-0.9c0,0,0,0,0,0L-74.5,485.6c-3.9,3.5-4.3,9.5-0.9,13.4    L51.5,644l3.2,3.6c3.5,4,9.5,4.4,13.4,0.9c0,0,0,0,0,0l117.9-103c4-3.5,4.4-9.5,0.9-13.5L140.1,478.6z"></path><circle class="st6" cx="285" cy="909.6" r="415.9"></circle><path class="st0" d="M428.2,260.2H141.4c-10,0-18.6-7.3-20.1-17.2l-1-6.4l328.7-2l-0.5,6.6C447.7,251.9,438.9,260.2,428.2,260.2z"></path><path class="st7" d="M120.2,106.6H449l0,0v128.1c0,10.2-8.3,18.5-18.5,18.5H138.6c-10.2,0-18.5-8.3-18.5-18.5    C120.2,234.6,120.2,106.6,120.2,106.6z"></path><path class="st7" d="M126.4,69h316.4c3.9,0,7.6,1.9,9.9,5l32,42.7c5.7,7.6,4.1,18.4-3.5,24c-2.9,2.2-6.5,3.4-10.1,3.4H98.2    c-9.5,0-17.2-7.7-17.2-17.2c0-3.7,1.2-7.3,3.4-10.3L116.5,74C118.8,70.9,122.5,69,126.4,69z"></path><path class="st8" d="M249.9,177.7h69.3c4.9,0,8.8,3.9,8.8,8.8v37.7c0,4.9-3.9,8.8-8.8,8.8h-69.3c-4.9,0-8.8-3.9-8.8-8.8v-37.7    C241.1,181.7,245,177.7,249.9,177.7z"></path><ellipse class="st9" cx="283.9" cy="109.9" rx="25.2" ry="9.4"></ellipse><g><defs><circle id="SVGID_5_" cx="285" cy="909.6" r="415.9"></circle></defs><clipPath id="SVGID_6_"><use xlink:href="#SVGID_5_" style="overflow:visible;"></use></clipPath><g class="st10"><path class="st11" d="M140.1,478.6l-83.3-95.2c-3.5-4-9.5-4.4-13.4-0.9c0,0,0,0,0,0L-74.5,485.6c-3.9,3.5-4.3,9.5-0.9,13.4      L51.5,644l3.2,3.6c3.5,4,9.5,4.4,13.4,0.9c0,0,0,0,0,0l117.9-103c4-3.5,4.4-9.5,0.9-13.5L140.1,478.6z"></path></g></g><path class="st12" d="M269.3,703.7l18.5-125.2c0.8-5.2-2.8-10-8-10.8l-155-22.9c-5.2-0.8-10,2.8-10.8,8L85.8,743.4l-0.7,4.8    c-0.8,5.2,2.8,10,8,10.8L248,781.9c5.2,0.8,10-2.8,10.8-8L269.3,703.7z"></path><g><defs><path id="SVGID_7_" d="M269.3,703.7l18.5-125.2c0.8-5.2-2.8-10-8-10.8l-155-22.9c-5.2-0.8-10,2.8-10.8,8L85.8,743.4l-0.7,4.8      c-0.8,5.2,2.8,10,8,10.8L248,781.9c5.2,0.8,10-2.8,10.8-8L269.3,703.7z"></path></defs><clipPath id="SVGID_8_"><use xlink:href="#SVGID_7_" style="overflow:visible;"></use></clipPath><g class="st13"><path class="st5" d="M140.1,478.6l-83.3-95.2c-3.5-4-9.5-4.4-13.4-0.9c0,0,0,0,0,0L-74.5,485.6c-3.9,3.5-4.3,9.5-0.9,13.4      L51.5,644l3.2,3.6c3.5,4,9.5,4.4,13.4,0.9c0,0,0,0,0,0l117.9-103c4-3.5,4.4-9.5,0.9-13.5L140.1,478.6z"></path></g></g><path class="st3" d="M141.1,467.1l-83.3-95.2c-3.5-4-9.5-4.4-13.4-0.9c0,0,0,0,0,0L-73.6,474.1c-4,3.5-4.4,9.5-0.9,13.5l126.9,145    l3.2,3.6c3.5,4,9.5,4.4,13.4,0.9c0,0,0,0,0,0L186.9,534c4-3.5,4.4-9.5,0.9-13.4c0,0,0,0,0,0L141.1,467.1z"></path><path class="st14" d="M149.3,504.3c-6.3,0.9-11,6.2-11.1,12.5c-0.1,1.4,0.3,2.7,1.1,3.8c0.8,1.1,2.2,1.7,3.6,1.3    c1.1-0.4,1.9-1.5,2.1-2.7c0.2-1.2,0-2.4-0.4-3.5c-1.3-4.2-4.7-8.2-9.1-8.2c-3.4,0-6.4,2.4-8.4,5.2c-3.8,5-5.5,11.2-8.1,16.9    c-1.1,2.8-2.8,5.4-5,7.6c-2.1,1.8-4.6,3.1-7.3,3.8c-3.2,1-6.7,1-9.9-0.2c-3.1-1.3-5.6-4.3-5.6-7.7s3.1-6.6,6.4-6.3    c1.9,0.3,3.5,1.4,4.6,3c1,1.6,1.6,3.4,1.7,5.3c0.5,5.6-1.3,11.2-5.1,15.4c-3.8,4.2-9.1,6.7-14.7,7c-8,0.4-15.8-1.3-23.1,1.9    c-1.8,0.7-3.5,1.8-4.9,3.2c-1.4,1.4-2,3.4-1.7,5.4"></path><path class="st14" d="M119.7,476.5c-3.1-0.6-6.4-0.6-9.5,0.1c-3.1,0.8-6,2.8-7.2,5.7s-0.6,6.5-2,9.4c-1.4,2.4-3.8,4-6.5,4.4    c-2.7,0.3-5.5,0.1-8.1-0.8c-3.3-1-7.1-2.3-10.1-0.6c-2.4,1.4-3.5,4.3-4.1,7c-1.1,4.8-1.4,9.8-0.8,14.8c0.6,5.6-2.9,8.7-8.2,10.6    s-11.2,1.3-16.8,1.4c-8.6,0.2-17.8,2.3-23.6,8.7c-3.2,3.5-5.1,8-7,12.5"></path><path class="st14" d="M-15.8,514.2c0.8-7,4.6-13.4,10.5-17.4c5.9-3.9,13.3-5,20-3c3.5,1,7.2,3.9,6.5,7.4c-0.3,1.1-0.9,2.1-1.7,2.9    c-3.9,3.5-11,1.1-13-3.9s0.4-10.8,4.4-14.2c2.7-2.3,6-3.6,9.5-4c5-0.5,10.1,1.1,14.9-0.2c6.3-1.9,10.2-8.2,9.1-14.6"></path></g></g><g><defs><path id="SVGID_9_" d="M126.4,69h316.4c3.9,0,7.6,1.9,9.9,5l32,42.7c5.7,7.6,4.1,18.4-3.5,24c-2.9,2.2-6.5,3.4-10.1,3.4H98.2    c-9.5,0-17.2-7.7-17.2-17.2c0-3.7,1.2-7.3,3.4-10.3L116.5,74C118.8,70.9,122.5,69,126.4,69z"></path></defs><clipPath id="SVGID_10_"><use xlink:href="#SVGID_9_" style="overflow:visible;"></use></clipPath><g class="st15"><path class="st9" d="M105.1,144.1l461.9-30c0,0-11.7,77.5-21.3,115.4"></path></g></g><g><defs><path id="SVGID_11_" d="M249.9,177.7h69.3c4.9,0,8.8,3.9,8.8,8.8v37.7c0,4.9-3.9,8.8-8.8,8.8h-69.3c-4.9,0-8.8-3.9-8.8-8.8v-37.7    C241.1,181.7,245,177.7,249.9,177.7z"></path></defs><clipPath id="SVGID_12_"><use xlink:href="#SVGID_11_" style="overflow:visible;"></use></clipPath><g class="st16"><path class="st17" d="M241.1,199.6c0,0,0.7,7.9,1.1,11.3c0.3,3.5,0.9,6.9,1.9,10.3c1,3.4,3,6.4,5.7,8.6c3.8,3,16.9,3.3,16.9,3.3    s-20.3,10.4-38,8.3c-0.4,0-0.7-0.2-1-0.4c-0.2-0.3-0.2-0.7-0.1-1.1l5.4-24.7"></path></g></g><path class="st18" d="M134.2,604.3c9.3-7.7,22.4-8.5,32.6-2c2.5,1.7,4.8,3.8,7.4,5.5c10.1,6.4,23.2,4.4,34.8,1.6s24.2-5.9,35.1-1.2"></path><polygon class="st5" points="483.8,447.1 442.7,472.2 375.2,383 416.3,358 "></polygon><path class="st5" d="M483.8,447.1l-41.1,25l-65.4-86.4c-1.4-1.8-2.1-3.9-2.3-6.1l-1.8-30.3c-0.2-3.8,4.1-6.5,8-5l31.6,12.2  c2.3,0.9,4.3,2.3,5.8,4.3L483.8,447.1z"></path><path class="st5" d="M486.5,471l-20.1,12.2c-5.8,3.5-13.7,2.2-17.5-2.9l-6.2-8.2l41.1-25l6.2,8.2C493.9,460.5,492.3,467.5,486.5,471  z"></path><path class="st5" d="M483.8,447.1l-41.1,25l-65.4-86.4c-1.4-1.8-2.1-3.9-2.3-6.1l-1.8-30.3c-0.2-3.8,4.1-6.5,8-5l31.6,12.2  c2.3,0.9,4.3,2.3,5.8,4.3L483.8,447.1z"></path><g><defs><path id="SVGID_13_" d="M483.8,447.1l-41.1,25l-65.4-86.4c-1.4-1.8-2.1-3.9-2.3-6.1l-1.8-30.3c-0.2-3.8,4.1-6.5,8-5l31.6,12.2    c2.3,0.9,4.3,2.3,5.8,4.3L483.8,447.1z"></path></defs><clipPath id="SVGID_14_"><use xlink:href="#SVGID_13_" style="overflow:visible;"></use></clipPath><g class="st19"><polygon class="st5" points="420.8,373.9 355.8,392 359.5,337.8 418,338.7   "></polygon><polygon class="st5" points="405,343.3 363,367.8 365.2,336.4   "></polygon><ellipse transform="matrix(0.9975 -7.027879e-02 7.027879e-02 0.9975 -26.2169 28.0868)" class="st5" cx="386" cy="386.6" rx="11.9" ry="10.5"></ellipse><ellipse transform="matrix(0.9975 -7.027879e-02 7.027879e-02 0.9975 -25.5549 29.1653)" class="st5" cx="401.7" cy="377.8" rx="11.9" ry="10.5"></ellipse><ellipse transform="matrix(0.9976 -6.982913e-02 6.982913e-02 0.9976 -24.8038 30.1351)" class="st5" cx="418.6" cy="369.8" rx="11.9" ry="10.6"></ellipse></g></g><rect x="395.1" y="355.2" transform="matrix(0.8127 -0.5827 0.5827 0.8127 -163.6962 322.4786)" class="st2" width="49.3" height="121.4"></rect><path class="st12" d="M475.1,450.8l-40.1,28.7L366.5,384c-1.4-2-2.3-4.3-2.5-6.8l-3-33.9c-0.3-3.1,2-5.8,5.1-6.1  c0.9-0.1,1.8,0.1,2.6,0.4l32,13.1c2.4,1,4.4,2.6,5.9,4.7L475.1,450.8z"></path><path class="st6" d="M435.1,479.6l40.1-28.7l0,0l6.5,9.1c4.1,5.7,2.8,13.5-2.9,17.6l-19.6,14c-5.7,4.1-13.5,2.8-17.6-2.9  L435.1,479.6L435.1,479.6z"></path><g><defs><path id="SVGID_15_" d="M475.1,450.8l-40.1,28.7L366.5,384c-1.4-2-2.3-4.3-2.5-6.8l-3-33.9c-0.3-3.1,2-5.8,5.1-6.1    c0.9-0.1,1.8,0.1,2.6,0.4l32,13.1c2.4,1,4.4,2.6,5.9,4.7L475.1,450.8z"></path></defs><clipPath id="SVGID_16_"><use xlink:href="#SVGID_15_" style="overflow:visible;"></use></clipPath><g class="st20"><polygon class="st21" points="409.5,369.9 345.3,391.4 347,330.5 405.4,330.5   "></polygon><polygon class="st6" points="392.6,335.9 351.7,364.1 352.7,328.9   "></polygon><circle class="st12" cx="375.3" cy="384.7" r="11.8"></circle><circle class="st12" cx="390.6" cy="374.5" r="11.8"></circle><circle class="st12" cx="406.2" cy="364.3" r="11.8"></circle></g></g><line class="st22" x1="382.8" y1="378.9" x2="442.2" y2="462.8"></line><line class="st22" x1="396.4" y1="369.4" x2="455.8" y2="453.3"></line><g><defs><path id="SVGID_17_" d="M435.1,479.6l40.1-28.7l0,0l6.5,9.1c4.1,5.7,2.8,13.5-2.9,17.6l-19.6,14c-5.7,4.1-13.5,2.8-17.6-2.9    L435.1,479.6L435.1,479.6z"></path></defs><clipPath id="SVGID_18_"><use xlink:href="#SVGID_17_" style="overflow:visible;"></use></clipPath><g class="st23"><path class="st11" d="M465.4,443.1c8.1,17.5,6.8,37.9-3.4,54.3c6.5-2.8,14.4-2.7,19.7-7.4c2-1.9,3.7-4.1,4.9-6.6    c4.4-7.7,8-16.1,9-25s-0.9-18.3-6.6-25.2"></path></g></g></svg>