<svg xmlns="http://www.w3.org/2000/svg" xmlns:xlink="http://www.w3.org/1999/xlink" id="Layer_1" data-name="Layer 1" viewBox="0 0 1160 560"><defs><style>.cls-1,.cls-8{fill:none;}.cls-2{fill:#281466;}.cls-3{clip-path:url(#clip-path);}.cls-4{fill:#ffe14f;}.cls-5{fill:#3b197f;}.cls-6{fill:#5431a5;}.cls-7{fill:#a273c6;}.cls-8{stroke:#5431a5;stroke-linecap:round;stroke-linejoin:round;stroke-width:17px;}</style><clipPath id="clip-path"><rect class="cls-1" width="1160" height="560"></rect></clipPath></defs><title>visual-dotcom_category_2ndhero_desktop-power_napping-202000925-kh</title><rect class="cls-2" width="1160" height="560"></rect><g class="cls-3"><rect class="cls-4" x="160" y="396.2" width="840" height="163.8"></rect><circle class="cls-4" cx="580" cy="285.25" r="183.75"></circle><circle class="cls-4" cx="289.5" cy="418.95" r="183.75"></circle><circle class="cls-4" cx="870.5" cy="418.95" r="183.75"></circle><circle class="cls-5" cx="580" cy="285.25" r="393.75"></circle><circle class="cls-5" cx="273.05" cy="430.85" r="381.85"></circle><circle class="cls-5" cx="871.55" cy="430.85" r="381.85"></circle><circle class="cls-6" cx="580" cy="285.25" r="289.45"></circle><circle class="cls-6" cx="273.05" cy="430.85" r="289.45"></circle><circle class="cls-6" cx="871.55" cy="430.85" r="289.45"></circle><rect class="cls-7" x="160" y="396.2" width="840" height="163.8"></rect><circle class="cls-7" cx="580" cy="285.25" r="183.75"></circle><circle class="cls-7" cx="289.5" cy="418.95" r="183.75"></circle><circle class="cls-7" cx="870.5" cy="418.95" r="183.75"></circle><path class="cls-8" d="M499.7,282.36a36.51,36.51,0,0,0,68.8,0"></path><path class="cls-8" d="M602.86,282.36a36.51,36.51,0,0,0,68.8,0"></path><path class="cls-8" d="M427.67,309.72a233.86,233.86,0,0,0,316.4,0"></path></g></svg>