<svg xmlns="http://www.w3.org/2000/svg" xmlns:xlink="http://www.w3.org/1999/xlink" version="1.1" id="Layer_1" x="0px" y="0px" viewBox="0 0 1195.4 394" style="enable-background:new 0 0 1195.4 394;" xml:space="preserve"><style type="text/css">
	.st0{fill:none;}
	.st1{fill:#FF7E1D;}
	.st2{fill:#FFCE00;}
	.st3{fill:#413D45;}
</style><g><path class="st0" d="M562,221.4c0.2-0.4,0.4-0.7,0.6-1.1C562.4,220.7,562.2,221,562,221.4z"></path><path class="st0" d="M640.3,236.1c0.1,0.1,0.2,0.1,0.3,0.2C640.5,236.2,640.4,236.2,640.3,236.1z"></path><path class="st0" d="M560.9,223.2c0.2-0.4,0.5-0.8,0.7-1.1C561.4,222.4,561.2,222.8,560.9,223.2z"></path><path class="st0" d="M563.8,217.6c0.1-0.2,0.2-0.4,0.2-0.6C564,217.2,563.9,217.4,563.8,217.6z"></path><path class="st0" d="M562.9,219.5c0.1-0.3,0.3-0.6,0.4-0.9C563.2,218.9,563.1,219.2,562.9,219.5z"></path><path class="st0" d="M555.7,229.8c0.4-0.4,0.8-0.8,1.2-1.3C556.5,228.9,556.1,229.4,555.7,229.8z"></path><path class="st0" d="M557.2,228.2c0.3-0.4,0.7-0.8,1-1.2C557.9,227.4,557.5,227.8,557.2,228.2z"></path><path class="st0" d="M558.5,226.6c0.3-0.4,0.6-0.8,0.9-1.2C559.2,225.8,558.9,226.2,558.5,226.6z"></path><path class="st0" d="M559.8,224.9c0.3-0.4,0.5-0.8,0.8-1.2C560.3,224.1,560.1,224.5,559.8,224.9z"></path><path class="st0" d="M552.6,232.6c0.4-0.3,0.7-0.6,1.1-0.9C553.3,232,553,232.3,552.6,232.6z"></path><path class="st0" d="M529,241.1C528.9,241.1,528.9,241.1,529,241.1C528.9,241.1,528.9,241.1,529,241.1z"></path><path class="st0" d="M636.9,234C636.9,234,636.9,234,636.9,234C636.9,234,636.9,234,636.9,234z"></path><path class="st0" d="M799.5,258.9c-116.2,106.7-294.8,106.7-411,0c-0.8-0.8-1.4-1.6-1.9-2.6c0.4,1,1.1,1.9,1.9,2.6   C504.8,365.7,683.4,365.7,799.5,258.9C799.6,259,799.6,258.9,799.5,258.9c2.9-2.6,3.4-6.8,1.5-10   C802.9,252.1,802.4,256.3,799.5,258.9z"></path><path class="st0" d="M638.5,235.1c0.1,0.1,0.2,0.1,0.3,0.2C638.7,235.2,638.6,235.1,638.5,235.1z"></path><path class="st0" d="M800,247.6L800,247.6C800,247.5,800,247.5,800,247.6c-0.8-0.9-1.8-1.6-2.8-2C798.3,246,799.2,246.7,800,247.6   C800,247.6,800,247.6,800,247.6z"></path><path class="st0" d="M482.4,210.9L482.4,210.9C482.4,210.8,482.4,210.8,482.4,210.9c-4.2,1.5-6.4,6.1-4.9,10.3   c0.1,0.2,0.1,0.3,0.2,0.5c-0.1-0.2-0.1-0.3-0.2-0.5C476,217,478.2,212.4,482.4,210.9z"></path><path class="st0" d="M492,214.3c-1.8-3-5.3-4.5-8.8-3.6C486.6,209.8,490.2,211.3,492,214.3z"></path><path class="st0" d="M528.6,257.1c-21.3,0-40.4-12.5-49.2-31.5c6.1,13.2,17.2,23.5,31.1,28.4c26.8,9.5,56.1-3.3,67.6-28.8   C569.3,244.5,550,257.1,528.6,257.1z"></path><path class="st0" d="M579.3,222c0.1-0.3,0.2-0.6,0.3-0.8c0.3-0.8,0.4-1.6,0.5-2.4c0,0.8-0.2,1.6-0.5,2.4   C579.6,221.4,579.4,221.7,579.3,222z"></path><path class="st0" d="M555.5,230c-0.5,0.5-1,0.9-1.5,1.4C554.6,230.9,555,230.5,555.5,230z"></path><path class="st0" d="M492.6,215.7C492.6,215.7,492.6,215.6,492.6,215.7C492.6,215.6,492.6,215.7,492.6,215.7   C492.6,215.7,492.6,215.7,492.6,215.7z"></path><path class="st0" d="M551.1,233.8c0.2-0.2,0.5-0.3,0.7-0.5C551.5,233.4,551.3,233.6,551.1,233.8z"></path><path class="st0" d="M492,214.3c0.1,0.2,0.2,0.4,0.4,0.7C492.2,214.7,492.1,214.5,492,214.3z"></path><path class="st0" d="M509.9,236.2C509.9,236.2,510,236.3,509.9,236.2C510,236.3,509.9,236.2,509.9,236.2z"></path><path class="st0" d="M525.2,241C525.2,241,525.2,241,525.2,241C525.2,241,525.2,241,525.2,241z"></path><path class="st0" d="M578.8,223.3c-0.2,0.5-0.4,1.1-0.7,1.6C578.4,224.3,578.6,223.8,578.8,223.3z"></path><path class="st0" d="M483,210.7c0.1,0,0.1,0,0.2-0.1C483.1,210.7,483.1,210.7,483,210.7z"></path><path class="st0" d="M478.9,224.8c-0.2-0.4-0.4-0.9-0.6-1.3C478.6,223.9,478.8,224.3,478.9,224.8z"></path><path class="st0" d="M508.1,235.2C508.1,235.2,508.2,235.2,508.1,235.2C508.2,235.2,508.1,235.2,508.1,235.2z"></path><path class="st0" d="M546.3,236.7c0.1-0.1,0.2-0.1,0.4-0.2C546.6,236.6,546.4,236.7,546.3,236.7z"></path><path class="st0" d="M538.1,239.9C538.1,239.9,538.1,239.9,538.1,239.9C538.1,239.9,538.1,239.9,538.1,239.9z"></path><path class="st0" d="M547.9,235.8c0.2-0.1,0.3-0.2,0.5-0.3C548.2,235.6,548.1,235.7,547.9,235.8z"></path><path class="st0" d="M527,241.1C527,241.1,527.1,241.1,527,241.1C527.1,241.1,527,241.1,527,241.1z"></path><path class="st0" d="M549.5,234.9c0.2-0.1,0.4-0.3,0.6-0.4C549.9,234.6,549.7,234.7,549.5,234.9z"></path><path class="st0" d="M532.6,240.9C532.6,240.9,532.6,240.9,532.6,240.9C532.6,240.9,532.6,240.9,532.6,240.9z"></path><path class="st0" d="M536.2,240.3C536.3,240.3,536.3,240.3,536.2,240.3C536.3,240.3,536.3,240.3,536.2,240.3z"></path><path class="st0" d="M530.8,241.1C530.8,241.1,530.8,241.1,530.8,241.1C530.8,241.1,530.8,241.1,530.8,241.1z"></path><path class="st0" d="M534.4,240.7C534.5,240.7,534.5,240.7,534.4,240.7C534.5,240.7,534.5,240.7,534.4,240.7z"></path><path class="st0" d="M705.6,230.7c-0.3,0.4-0.5,0.9-0.8,1.3C705.1,231.6,705.3,231.2,705.6,230.7z"></path><path class="st0" d="M675.6,254.6c-0.5,0.2-1,0.3-1.6,0.5C674.5,254.9,675,254.7,675.6,254.6z"></path><path class="st0" d="M707,228.2c-0.1,0.2-0.2,0.4-0.3,0.6C706.8,228.6,706.9,228.4,707,228.2z"></path><path class="st0" d="M673.4,255.2c-0.5,0.1-1.1,0.3-1.6,0.4C672.3,255.5,672.9,255.3,673.4,255.2z"></path><path class="st0" d="M663.2,257c-0.6,0-1.3,0.1-1.9,0.1C661.9,257.1,662.6,257,663.2,257z"></path><path class="st0" d="M679.5,253.1c-1.2,0.5-2.4,0.9-3.6,1.3C677.1,254,678.3,253.6,679.5,253.1z"></path><path class="st0" d="M683.1,251.5c-0.5,0.2-1,0.5-1.5,0.7C682.1,252,682.6,251.8,683.1,251.5z"></path><path class="st0" d="M704.4,232.6c-0.3,0.5-0.6,1-1,1.4C703.8,233.6,704.1,233.1,704.4,232.6z"></path><path class="st0" d="M642.1,237.1c0.1,0,0.2,0.1,0.3,0.1C642.3,237.2,642.2,237.1,642.1,237.1z"></path><path class="st0" d="M652.6,256.7c-0.7-0.1-1.3-0.2-2-0.3C651.3,256.6,652,256.7,652.6,256.7z"></path><path class="st0" d="M671.3,255.7c-2.5,0.6-5.2,1-7.8,1.2C666.1,256.7,668.7,256.3,671.3,255.7z"></path><path class="st0" d="M660,241.1c-0.3,0-0.6,0-1,0C659.4,241.1,659.7,241.1,660,241.1z"></path><path class="st0" d="M636.7,252.3c-13.1-6-23.6-17-28.7-31.2c-1.5-4.2,0.7-8.8,4.9-10.3c3.6-1.3,7.6,0.2,9.5,3.4   c-1.9-3.2-5.9-4.7-9.6-3.4c0,0-0.1,0-0.1,0c-4.2,1.5-6.3,6.1-4.8,10.2C612.9,235,623.3,246.2,636.7,252.3z"></path><path class="st0" d="M695,215.7c1.5-4.2,6.1-6.4,10.3-4.9c2.3,0.8,4.1,2.7,4.8,4.8c-0.8-2.2-2.5-4-4.9-4.9   C701.1,209.3,696.5,211.5,695,215.7c-2.7,7.4-7.5,13.7-13.8,18.2C687.4,229.6,692.3,223.4,695,215.7z"></path><path class="st0" d="M683.5,251.3c7.7-3.9,14.6-9.7,19.7-17C698.1,241.5,691.3,247.3,683.5,251.3z"></path><path class="st0" d="M640.9,254c0.5,0.2,0.9,0.3,1.4,0.5c-1.9-0.6-3.7-1.3-5.5-2.1C638.1,252.9,639.5,253.5,640.9,254z"></path><path class="st0" d="M650.6,256.5c-2-0.3-3.9-0.7-5.9-1.3C646.6,255.7,648.6,256.1,650.6,256.5z"></path><path class="st0" d="M644.4,255.1c-0.6-0.2-1.2-0.3-1.8-0.5C643.2,254.8,643.8,254.9,644.4,255.1z"></path><path class="st0" d="M652.8,256.8c2.8,0.3,5.5,0.4,8.2,0.3c-0.6,0-1.3,0-2,0C656.9,257.1,654.8,257,652.8,256.8z"></path><path class="st0" d="M681.1,252.5c-0.5,0.2-1,0.5-1.6,0.7C680,252.9,680.5,252.7,681.1,252.5z"></path><path class="st0" d="M657.2,241c0.3,0,0.6,0,0.9,0C657.8,241,657.5,241,657.2,241z"></path><path class="st0" d="M660.9,241c0.3,0,0.7,0,1-0.1C661.6,241,661.2,241,660.9,241z"></path><path class="st0" d="M655.4,240.9c0.3,0,0.6,0,0.8,0.1C655.9,240.9,655.7,240.9,655.4,240.9z"></path><path class="st0" d="M708.1,226c-0.1,0.1-0.1,0.3-0.2,0.4C708,226.3,708.1,226.1,708.1,226z"></path><path class="st0" d="M653.5,240.7c0.2,0,0.5,0.1,0.7,0.1C654,240.7,653.8,240.7,653.5,240.7z"></path><path class="st0" d="M648.1,239.5c0.1,0,0.2,0,0.3,0.1C648.3,239.5,648.2,239.5,648.1,239.5z"></path><path class="st0" d="M649.9,239.9c0.2,0,0.3,0.1,0.5,0.1C650.2,240,650.1,240,649.9,239.9z"></path><path class="st0" d="M664.6,240.7c0.4-0.1,0.8-0.1,1.2-0.2C665.4,240.5,665,240.6,664.6,240.7z"></path><path class="st0" d="M651.7,240.4c0.2,0,0.4,0.1,0.6,0.1C652.1,240.4,651.9,240.4,651.7,240.4z"></path><path class="st0" d="M662.8,240.9c0.4,0,0.7-0.1,1.1-0.1C663.5,240.8,663.1,240.9,662.8,240.9z"></path><path class="st0" d="M679.6,235.1c0.5-0.3,1.1-0.7,1.6-1.1C680.7,234.4,680.1,234.7,679.6,235.1z"></path><path class="st0" d="M666.4,240.4c0.5-0.1,0.9-0.2,1.4-0.3C667.3,240.2,666.9,240.3,666.4,240.4z"></path><path class="st0" d="M677.9,236.1c0.5-0.3,1-0.6,1.5-0.9C678.9,235.5,678.4,235.8,677.9,236.1z"></path><path class="st0" d="M710.3,216.4C710.3,216.4,710.3,216.4,710.3,216.4C710.3,216.4,710.3,216.4,710.3,216.4z"></path><path class="st0" d="M668.2,239.9c0.5-0.1,1-0.3,1.6-0.4C669.3,239.7,668.7,239.8,668.2,239.9z"></path><path class="st0" d="M671.9,238.9c-0.6,0.2-1.2,0.4-1.8,0.6c2-0.6,3.9-1.3,5.7-2.2C674.5,237.8,673.2,238.4,671.9,238.9z"></path><path class="st0" d="M676,237.1c0.5-0.3,1-0.5,1.5-0.8C677,236.6,676.5,236.8,676,237.1z"></path><path class="st1" d="M0,326.6c160.6-135.2,368-216.7,594.4-216.7c0,0,0,0,0,0c0,0,0,0,0,0c229.5,0,439.5,83.7,601,222.3V0H0V326.6z   "></path><path class="st2" d="M0,326.6V394h1195.4v-61.8c-161.5-138.6-371.5-222.3-601-222.3c0,0,0,0,0,0C368,109.9,160.6,191.4,0,326.6z    M579.7,221.2c-0.1,0.3-0.2,0.6-0.3,0.8c-0.2,0.4-0.3,0.9-0.5,1.3c-0.2,0.5-0.4,1.1-0.7,1.6c-0.1,0.1-0.1,0.3-0.2,0.4   c-11.5,25.5-40.8,38.3-67.6,28.8c-13.8-4.9-25-15.2-31.1-28.4c-0.1-0.3-0.3-0.6-0.4-0.8c-0.2-0.4-0.4-0.9-0.6-1.3   c-0.2-0.6-0.5-1.2-0.7-1.8c-0.1-0.2-0.1-0.3-0.2-0.5c-1.5-4.2,0.7-8.8,4.8-10.3c0,0,0,0,0,0v0c0,0,0,0,0,0c0.2-0.1,0.4-0.1,0.6-0.2   c0.1,0,0.1,0,0.2-0.1c0,0,0,0,0,0c3.4-0.8,7,0.7,8.8,3.6c0,0,0,0,0,0c0.1,0.2,0.2,0.4,0.4,0.7c0.1,0.2,0.2,0.4,0.3,0.6   c0,0,0,0.1,0,0.1c0,0,0,0,0,0c0,0,0,0,0,0.1c2.9,8.1,8.4,14.9,15.5,19.4c0,0,0,0,0.1,0c0.6,0.4,1.1,0.7,1.7,1c0,0,0.1,0,0.1,0.1   c1.8,1,3.8,1.9,5.8,2.6c3.1,1.1,6.2,1.8,9.4,2.1c0,0,0,0,0,0c0.6,0.1,1.2,0.1,1.8,0.1c0,0,0,0,0,0c0.6,0,1.2,0,1.8,0c0,0,0,0,0.1,0   c0.6,0,1.2,0,1.8-0.1c0,0,0,0,0.1,0c0.6,0,1.2-0.1,1.8-0.1c0,0,0,0,0.1,0c0.6-0.1,1.2-0.1,1.8-0.2c0,0,0,0,0.1,0   c0.6-0.1,1.2-0.2,1.7-0.3c0,0,0.1,0,0.1,0c0.6-0.1,1.2-0.3,1.7-0.4c0,0,0,0,0,0c2.9-0.7,5.6-1.8,8.2-3.2c0.1-0.1,0.2-0.1,0.4-0.2   c0.4-0.2,0.8-0.5,1.2-0.7c0.2-0.1,0.3-0.2,0.5-0.3c0.4-0.2,0.7-0.5,1.1-0.7c0.2-0.1,0.4-0.3,0.6-0.4c0.3-0.2,0.7-0.5,1-0.7   c0.2-0.2,0.5-0.3,0.7-0.5c0.3-0.2,0.6-0.4,0.8-0.6c0.4-0.3,0.7-0.6,1.1-0.9c0.1-0.1,0.2-0.2,0.4-0.3c0.5-0.4,1-0.9,1.5-1.4   c0.1-0.1,0.1-0.1,0.2-0.2c0.4-0.4,0.8-0.8,1.2-1.3c0.1-0.1,0.2-0.2,0.3-0.3c0.3-0.4,0.7-0.8,1-1.2c0.1-0.1,0.2-0.3,0.3-0.4   c0.3-0.4,0.6-0.8,0.9-1.2c0.1-0.2,0.2-0.3,0.3-0.5c0.3-0.4,0.5-0.8,0.8-1.2c0.1-0.2,0.2-0.4,0.4-0.5c0.2-0.4,0.5-0.8,0.7-1.1   c0.1-0.2,0.2-0.4,0.4-0.6c0.2-0.4,0.4-0.7,0.6-1.1c0.1-0.3,0.3-0.5,0.4-0.8c0.1-0.3,0.3-0.6,0.4-0.9c0.1-0.3,0.3-0.6,0.4-1   c0.1-0.2,0.2-0.4,0.2-0.6c0.2-0.4,0.3-0.8,0.5-1.2c1.5-4.2,6.1-6.4,10.3-4.9c3.4,1.2,5.5,4.5,5.3,7.9   C580.1,219.6,579.9,220.4,579.7,221.2z M797.2,245.6c1,0.4,2,1.1,2.8,1.9c0,0,0,0,0,0v0c0.4,0.4,0.7,0.9,1,1.3   c1.9,3.2,1.4,7.4-1.4,10c0,0,0,0-0.1,0.1c-116.2,106.7-294.8,106.7-411,0c-0.8-0.8-1.5-1.7-1.9-2.6c-1.3-2.9-0.9-6.3,1.4-8.8   c3-3.3,8.1-3.5,11.4-0.5h0c110.1,101.1,279.2,101.1,389.3,0C791.1,244.9,794.4,244.4,797.2,245.6z M612.8,210.9   C612.8,210.8,612.8,210.8,612.8,210.9c3.7-1.3,7.7,0.2,9.6,3.4c0.3,0.5,0.5,1,0.7,1.5c2.6,7.4,7.5,13.7,13.7,18.2c0,0,0,0,0,0   c0.5,0.4,1.1,0.7,1.6,1.1c0.1,0.1,0.2,0.1,0.3,0.2c0.5,0.3,1,0.6,1.5,0.9c0.1,0.1,0.2,0.1,0.3,0.2c0.5,0.3,1,0.5,1.5,0.8   c0.1,0,0.2,0.1,0.3,0.1c1.3,0.6,2.5,1.2,3.9,1.6c0.6,0.2,1.2,0.4,1.8,0.6c0.1,0,0.2,0,0.3,0.1c0.5,0.2,1,0.3,1.6,0.4   c0.2,0,0.3,0.1,0.5,0.1c0.4,0.1,0.9,0.2,1.4,0.3c0.2,0,0.4,0.1,0.6,0.1c0.4,0.1,0.8,0.1,1.2,0.2c0.2,0,0.5,0.1,0.7,0.1   c0.4,0,0.7,0.1,1.1,0.1c0.3,0,0.6,0,0.8,0.1c0.3,0,0.7,0,1,0.1c0.3,0,0.6,0,0.9,0c0.3,0,0.6,0,1,0c0.3,0,0.6,0,1,0   c0.3,0,0.6,0,0.9,0c0.3,0,0.7,0,1-0.1c0.3,0,0.6,0,0.8-0.1c0.4,0,0.7-0.1,1.1-0.1c0.2,0,0.5-0.1,0.7-0.1c0.4-0.1,0.8-0.1,1.2-0.2   c0.2,0,0.4-0.1,0.6-0.1c0.5-0.1,0.9-0.2,1.4-0.3c0.2,0,0.3-0.1,0.5-0.1c0.5-0.1,1-0.3,1.6-0.4c0.1,0,0.2,0,0.3-0.1   c0.6-0.2,1.2-0.4,1.8-0.6c1.3-0.5,2.6-1,3.9-1.6c0.1,0,0.2-0.1,0.3-0.1c0.5-0.3,1-0.5,1.5-0.8c0.1-0.1,0.2-0.1,0.3-0.2   c0.5-0.3,1-0.6,1.5-0.9c0.1-0.1,0.2-0.1,0.3-0.2c0.5-0.3,1.1-0.7,1.6-1.1c0,0,0,0,0,0c6.3-4.5,11.1-10.8,13.7-18.2   c1.5-4.2,6.1-6.4,10.3-4.9c2.4,0.8,4.1,2.7,4.9,4.9c0.1,0.2,0.2,0.5,0.2,0.7c0,0,0,0,0,0c0.4,1.5,0.4,3.2-0.2,4.7   c-0.6,1.7-1.3,3.3-2,4.9c-0.1,0.1-0.1,0.3-0.2,0.4c-0.3,0.6-0.6,1.2-0.9,1.8c-0.1,0.2-0.2,0.4-0.3,0.6c-0.4,0.7-0.7,1.3-1.1,1.9   c-0.3,0.4-0.5,0.9-0.8,1.3c-0.1,0.2-0.3,0.4-0.4,0.6c-0.3,0.5-0.6,1-1,1.4c-0.1,0.1-0.1,0.2-0.2,0.3c-5.2,7.3-12,13-19.7,17   c-0.1,0.1-0.3,0.1-0.4,0.2c-0.5,0.2-1,0.5-1.5,0.7c-0.2,0.1-0.3,0.2-0.5,0.2c-0.5,0.2-1,0.5-1.6,0.7c0,0,0,0,0,0   c-1.2,0.5-2.4,0.9-3.6,1.3c-0.1,0-0.3,0.1-0.4,0.1c-0.5,0.2-1,0.3-1.6,0.5c-0.2,0.1-0.4,0.1-0.6,0.2c-0.5,0.1-1.1,0.3-1.6,0.4   c-0.2,0-0.3,0.1-0.5,0.1c-2.6,0.6-5.2,1-7.8,1.2c-0.1,0-0.2,0-0.3,0c-0.6,0-1.3,0.1-1.9,0.1c-0.1,0-0.2,0-0.3,0   c-2.7,0.1-5.5,0-8.2-0.3c0,0-0.1,0-0.1,0c-0.7-0.1-1.3-0.2-2-0.3c0,0,0,0-0.1,0c-2-0.3-3.9-0.7-5.9-1.3c-0.1,0-0.2-0.1-0.3-0.1   c-0.6-0.2-1.2-0.3-1.8-0.5c-0.1,0-0.2-0.1-0.3-0.1c-0.5-0.2-1-0.3-1.4-0.5c-1.4-0.5-2.8-1.1-4.1-1.7c0,0-0.1,0-0.1,0   c-13.3-6-23.7-17.3-28.7-31.2C606.5,216.9,608.6,212.4,612.8,210.9z"></path><path class="st3" d="M574.8,210.9c-4.2-1.5-8.8,0.7-10.3,4.9c-0.1,0.4-0.3,0.8-0.5,1.2c-0.1,0.2-0.2,0.4-0.2,0.6   c-0.1,0.3-0.3,0.6-0.4,1c-0.1,0.3-0.3,0.6-0.4,0.9c-0.1,0.3-0.3,0.5-0.4,0.8c-0.2,0.4-0.4,0.7-0.6,1.1c-0.1,0.2-0.2,0.4-0.4,0.6   c-0.2,0.4-0.4,0.8-0.7,1.1c-0.1,0.2-0.2,0.4-0.4,0.5c-0.3,0.4-0.5,0.8-0.8,1.2c-0.1,0.2-0.2,0.3-0.3,0.5c-0.3,0.4-0.6,0.8-0.9,1.2   c-0.1,0.1-0.2,0.3-0.3,0.4c-0.3,0.4-0.7,0.8-1,1.2c-0.1,0.1-0.2,0.2-0.3,0.3c-0.4,0.4-0.8,0.8-1.2,1.3c-0.1,0.1-0.1,0.1-0.2,0.2   c-0.5,0.5-1,0.9-1.5,1.4c-0.1,0.1-0.2,0.2-0.4,0.3c-0.4,0.3-0.7,0.6-1.1,0.9c-0.3,0.2-0.6,0.4-0.8,0.6c-0.2,0.2-0.5,0.4-0.7,0.5   c-0.3,0.2-0.7,0.5-1,0.7c-0.2,0.1-0.4,0.3-0.6,0.4c-0.4,0.2-0.7,0.5-1.1,0.7c-0.2,0.1-0.3,0.2-0.5,0.3c-0.4,0.2-0.8,0.5-1.2,0.7   c-0.1,0.1-0.2,0.1-0.4,0.2c-2.6,1.4-5.4,2.4-8.2,3.2c0,0,0,0,0,0c-0.6,0.1-1.1,0.3-1.7,0.4c0,0-0.1,0-0.1,0   c-0.6,0.1-1.2,0.2-1.7,0.3c0,0,0,0-0.1,0c-0.6,0.1-1.2,0.2-1.8,0.2c0,0,0,0-0.1,0c-0.6,0.1-1.2,0.1-1.8,0.1c0,0,0,0-0.1,0   c-0.6,0-1.2,0.1-1.8,0.1c0,0,0,0-0.1,0c-0.6,0-1.2,0-1.8,0c0,0,0,0,0,0c-0.6,0-1.2-0.1-1.8-0.1c0,0,0,0,0,0c-3.1-0.3-6.3-1-9.4-2.1   c-2-0.7-3.9-1.6-5.8-2.6c0,0-0.1,0-0.1-0.1c-0.6-0.3-1.2-0.7-1.7-1c0,0,0,0-0.1,0c-7.1-4.5-12.6-11.3-15.5-19.4c0,0,0,0,0-0.1   c0,0,0-0.1,0-0.1c-0.1-0.2-0.2-0.4-0.3-0.6c-0.1-0.2-0.2-0.4-0.4-0.7c0,0,0,0,0,0c-1.8-3-5.3-4.5-8.8-3.6c0,0,0,0,0,0   c-0.1,0-0.1,0-0.2,0.1c-0.2,0.1-0.4,0.1-0.6,0.2c0,0,0,0,0,0c-4.2,1.5-6.4,6.1-4.9,10.3c0.1,0.2,0.1,0.3,0.2,0.5   c0.2,0.6,0.4,1.2,0.7,1.8c0.2,0.4,0.4,0.9,0.6,1.3c0.1,0.3,0.3,0.6,0.4,0.8c8.8,19.1,28,31.5,49.2,31.5c21.4,0,40.7-12.6,49.4-31.9   c0.1-0.1,0.1-0.3,0.2-0.4c0.2-0.5,0.5-1,0.7-1.6c0.2-0.4,0.3-0.8,0.5-1.3c0.1-0.3,0.2-0.6,0.3-0.9c0.3-0.8,0.4-1.6,0.5-2.4   C580.3,215.3,578.2,212.1,574.8,210.9z"></path><path class="st3" d="M612.9,210.8c-4.2,1.5-6.4,6.1-4.9,10.3c5.1,14.1,15.6,25.2,28.7,31.2c0,0,0.1,0,0.1,0   c1.8,0.8,3.6,1.5,5.5,2.1c0.1,0,0.2,0.1,0.3,0.1c0.6,0.2,1.2,0.4,1.8,0.5c0.1,0,0.2,0.1,0.3,0.1c1.9,0.5,3.9,1,5.9,1.3   c0,0,0,0,0.1,0c0.7,0.1,1.3,0.2,2,0.3c0,0,0.1,0,0.1,0c2.1,0.2,4.2,0.4,6.3,0.4c0.7,0,1.3,0,2,0c0.1,0,0.2,0,0.3,0   c0.6,0,1.3-0.1,1.9-0.1c0.1,0,0.2,0,0.3,0c2.7-0.2,5.3-0.6,7.8-1.2c0.2,0,0.3-0.1,0.5-0.1c0.5-0.1,1.1-0.3,1.6-0.4   c0.2-0.1,0.4-0.1,0.6-0.2c0.5-0.2,1-0.3,1.6-0.5c0.1,0,0.3-0.1,0.4-0.1c1.2-0.4,2.4-0.8,3.6-1.3c0,0,0,0,0,0c0.5-0.2,1-0.4,1.6-0.7   c0.2-0.1,0.3-0.2,0.5-0.2c0.5-0.2,1-0.5,1.5-0.7c0.1-0.1,0.3-0.1,0.4-0.2c7.8-3.9,14.6-9.8,19.7-17c0.1-0.1,0.1-0.2,0.2-0.3   c0.3-0.5,0.7-1,1-1.4c0.1-0.2,0.3-0.4,0.4-0.6c0.3-0.4,0.5-0.8,0.8-1.3c0.4-0.6,0.8-1.3,1.1-1.9c0.1-0.2,0.2-0.4,0.3-0.6   c0.3-0.6,0.6-1.2,0.9-1.8c0.1-0.1,0.1-0.3,0.2-0.4c0.7-1.6,1.4-3.2,2-4.9c0.6-1.6,0.6-3.2,0.2-4.7c0,0,0,0,0,0   c-0.1-0.2-0.1-0.5-0.2-0.7c-0.8-2.2-2.5-4-4.8-4.8c-4.2-1.5-8.8,0.7-10.3,4.9c-2.7,7.6-7.6,13.9-13.8,18.2c0,0,0,0,0,0   c-0.5,0.4-1.1,0.7-1.6,1.1c-0.1,0.1-0.2,0.1-0.3,0.2c-0.5,0.3-1,0.6-1.5,0.9c-0.1,0.1-0.2,0.1-0.3,0.2c-0.5,0.3-1,0.5-1.5,0.8   c-0.1,0-0.2,0.1-0.3,0.1c-1.8,0.9-3.7,1.6-5.7,2.2c-0.1,0-0.2,0-0.3,0.1c-0.5,0.2-1,0.3-1.6,0.4c-0.2,0-0.3,0.1-0.5,0.1   c-0.4,0.1-0.9,0.2-1.4,0.3c-0.2,0-0.4,0.1-0.6,0.1c-0.4,0.1-0.8,0.1-1.2,0.2c-0.2,0-0.5,0.1-0.7,0.1c-0.4,0-0.7,0.1-1.1,0.1   c-0.3,0-0.6,0-0.8,0.1c-0.3,0-0.7,0-1,0.1c-0.3,0-0.6,0-0.9,0c-0.3,0-0.6,0-1,0c-0.3,0-0.6,0-1,0c-0.3,0-0.6,0-0.9,0   c-0.3,0-0.7,0-1-0.1c-0.3,0-0.6,0-0.8-0.1c-0.4,0-0.7-0.1-1.1-0.1c-0.2,0-0.5-0.1-0.7-0.1c-0.4-0.1-0.8-0.1-1.2-0.2   c-0.2,0-0.4-0.1-0.6-0.1c-0.5-0.1-0.9-0.2-1.4-0.3c-0.2,0-0.3-0.1-0.5-0.1c-0.5-0.1-1-0.3-1.6-0.4c-0.1,0-0.2,0-0.3-0.1   c-0.6-0.2-1.2-0.4-1.8-0.6c-1.3-0.5-2.6-1-3.9-1.6c-0.1,0-0.2-0.1-0.3-0.1c-0.5-0.3-1-0.5-1.5-0.8c-0.1-0.1-0.2-0.1-0.3-0.2   c-0.5-0.3-1-0.6-1.5-0.9c-0.1-0.1-0.2-0.1-0.3-0.2c-0.5-0.3-1.1-0.7-1.6-1.1c0,0,0,0,0,0c-6.3-4.5-11.1-10.8-13.7-18.2   c-0.2-0.5-0.4-1-0.7-1.5C620.5,211,616.5,209.5,612.9,210.8z"></path><path class="st3" d="M399.4,247.1L399.4,247.1c-3.2-3-8.3-2.8-11.3,0.5c-2.3,2.5-2.7,5.9-1.4,8.8c0.4,0.9,1.1,1.8,1.9,2.6   c116.2,106.7,294.8,106.7,411,0c2.9-2.6,3.4-6.8,1.5-10c-0.3-0.5-0.6-0.9-1-1.3c0,0,0,0,0,0c-0.8-0.9-1.8-1.5-2.8-2   c-2.8-1.2-6.2-0.7-8.5,1.5C678.6,348.2,509.5,348.2,399.4,247.1z"></path></g></svg>